<?xml version="1.0" encoding="UTF-8"?>
<svg xmlns="http://www.w3.org/2000/svg" xmlns:xlink="http://www.w3.org/1999/xlink" width="333px" height="333px" viewBox="0 0 83 83" version="1.1">
<g id="surface1">
<path style=" stroke:none;fill-rule:evenodd;fill:rgb(13.72549%,12.156863%,12.54902%);fill-opacity:1;" d="M 51.089844 3.695312 C 51.296875 4.328125 50.542969 4.730469 50.15625 5.003906 C 49.457031 4.582031 48.761719 3.667969 47.882812 4.25 C 47.59375 4.363281 47.789062 4.675781 47.734375 4.890625 C 48.515625 5.683594 49.96875 5.824219 50.195312 6.945312 C 50.410156 7.984375 50.042969 8.925781 49.128906 9.386719 C 47.320312 10.359375 46.320312 7.691406 44.425781 8.839844 C 44.613281 8.183594 45.152344 7.652344 45.519531 7.050781 C 46.726562 7.21875 47.054688 8.625 48.449219 8.277344 C 48.789062 7.910156 49.394531 7.457031 48.910156 6.976562 C 47.949219 6.203125 46 6.15625 46.101562 4.449219 C 45.820312 3.769531 46.519531 3.476562 46.726562 2.988281 C 48.269531 2.496094 49.542969 3.703125 51.089844 3.695312 Z M 51.089844 3.695312 "/>
<path style=" stroke:none;fill-rule:evenodd;fill:rgb(13.72549%,12.156863%,12.54902%);fill-opacity:1;" d="M 34.007812 3.429688 C 34.921875 3.121094 36.160156 3.996094 37.0625 3.203125 C 37.347656 3.902344 36.640625 4.230469 36.621094 4.824219 C 35.789062 4.503906 34.714844 3.796875 33.878906 4.5625 C 33.613281 5.164062 34.339844 5.421875 34.699219 5.503906 C 35.96875 5.53125 37.429688 5.796875 37.957031 7.050781 C 38.289062 8.023438 37.574219 8.730469 36.875 9.164062 C 35.566406 10.085938 34.179688 8.097656 33.179688 9.746094 L 32.859375 9.746094 C 32.707031 8.945312 33.046875 8.332031 33.132812 7.636719 C 34.179688 7.804688 35.386719 9.097656 36.367188 7.890625 C 36.441406 7.417969 36.414062 7.316406 36.1875 6.929688 C 34.972656 6.015625 32.425781 7.058594 32.265625 4.921875 C 32.039062 4.25 32.511719 3.703125 33.039062 3.449219 C 33.40625 3.535156 33.8125 3.242188 34.007812 3.429688 Z M 34.007812 3.429688 "/>
<path style=" stroke:none;fill-rule:evenodd;fill:rgb(13.72549%,12.156863%,12.54902%);fill-opacity:1;" d="M 43.078125 5.957031 C 42.125 5.949219 42.277344 7.492188 41.164062 7.136719 C 41.117188 6.191406 39.042969 5.683594 40.316406 5.050781 L 41.570312 3.574219 C 42.246094 4.15625 42.953125 5.003906 43.078125 5.957031 Z M 43.078125 5.957031 "/>
<path style=" stroke:none;fill-rule:evenodd;fill:rgb(13.72549%,12.156863%,12.54902%);fill-opacity:1;" d="M 58.394531 6.589844 C 58.761719 6.910156 59.375 7.171875 58.914062 7.710938 L 58.113281 8.539062 C 57.472656 8.246094 57.320312 7.011719 56.320312 7.277344 C 55.519531 8.617188 54.417969 10.019531 54.964844 11.667969 C 53.804688 11.859375 53.105469 10.832031 52.042969 10.773438 C 52.070312 9.953125 53.371094 10.414062 53.464844 9.453125 C 53.90625 8.378906 54.859375 7.296875 54.679688 6.191406 C 54.058594 5.503906 53.152344 5.550781 52.257812 5.597656 C 52.042969 5.003906 52.625 4.722656 52.871094 4.296875 C 54.878906 4.628906 56.5 5.957031 58.394531 6.589844 Z M 58.394531 6.589844 "/>
<path style=" stroke:none;fill-rule:evenodd;fill:rgb(13.72549%,12.156863%,12.54902%);fill-opacity:1;" d="M 23.488281 8.664062 L 23.5 9.144531 C 22.707031 8.945312 22.09375 9.472656 21.753906 9.992188 C 22.179688 11.320312 23.085938 12.875 24.5625 13.308594 L 24.574219 13.640625 C 23.726562 14.082031 23.019531 14.875 22.019531 14.988281 C 22.59375 13.300781 21.285156 12.046875 20.324219 10.820312 C 18.976562 10.378906 18.871094 13.433594 17.898438 11.207031 L 17.890625 10.71875 L 22.1875 7.878906 C 22.953125 7.636719 23.140625 8.183594 23.488281 8.664062 Z M 23.488281 8.664062 "/>
<path style=" stroke:none;fill-rule:evenodd;fill:rgb(13.72549%,12.156863%,12.54902%);fill-opacity:1;" d="M 31.585938 10.414062 C 30.984375 9.832031 29.851562 9.125 29.445312 8.371094 C 28.46875 7.398438 27.382812 5.636719 25.996094 5.703125 C 25.789062 7.324219 25.828125 9.257812 26.109375 10.859375 C 26.027344 11.480469 25.703125 12.007812 25.667969 12.648438 C 26.441406 12.59375 27.117188 12.339844 27.75 11.953125 C 27.863281 11.492188 27.296875 11.320312 27.082031 11.007812 C 27.082031 10.660156 27.023438 10.300781 27.222656 10.039062 C 27.808594 9.980469 28.097656 9.265625 28.835938 9.511719 C 29.410156 9.886719 29.578125 10.445312 29.503906 11.113281 C 30.203125 10.867188 31.011719 10.90625 31.585938 10.414062 Z M 27.515625 8.566406 L 27.355469 8.746094 C 27.015625 8.550781 26.976562 8.210938 27.175781 7.925781 C 27.289062 8.003906 27.636719 8.257812 27.515625 8.566406 Z M 27.515625 8.566406 "/>
<path style=" stroke:none;fill-rule:evenodd;fill:rgb(13.72549%,12.156863%,12.54902%);fill-opacity:1;" d="M 61.996094 8.9375 C 60.410156 9.539062 59.480469 11.21875 59.496094 12.855469 C 59.753906 13.5 60.421875 13.789062 61.136719 13.621094 C 62.109375 12.527344 63.070312 11.414062 63.316406 10.03125 L 63.636719 9.699219 C 64.183594 10.285156 65.304688 10.472656 65.277344 11.441406 C 63.097656 11.773438 63.230469 14.949219 60.835938 14.921875 C 59.722656 14.78125 58.5 14.1875 58.054688 13.054688 C 58.167969 11.019531 59.507812 9.472656 59.863281 7.523438 C 60.695312 7.671875 61.457031 8.378906 61.996094 8.9375 Z M 61.996094 8.9375 "/>
<path style=" stroke:none;fill-rule:evenodd;fill:rgb(13.72549%,12.156863%,12.54902%);fill-opacity:1;" d="M 16.335938 12.847656 C 16.824219 13.882812 17.503906 14.835938 18.332031 15.714844 C 18.710938 16.597656 19.644531 16.042969 20.132812 16.636719 C 19.539062 17.03125 19.050781 18.316406 18.070312 18.136719 C 17.691406 16.410156 16.183594 15.035156 14.902344 13.855469 L 14.582031 13.867188 C 14.742188 13.214844 15.988281 11.699219 16.335938 12.847656 Z M 16.335938 12.847656 "/>
<path style=" stroke:none;fill-rule:evenodd;fill:rgb(13.72549%,12.156863%,12.54902%);fill-opacity:1;" d="M 13.996094 16.929688 C 12.933594 17.183594 12.027344 17.777344 11.78125 18.910156 C 12.292969 19.710938 12.839844 18.75 13.386719 18.710938 C 13.828125 18.050781 14.476562 17.84375 15.148438 17.710938 C 15.789062 17.917969 16.695312 17.777344 16.9375 18.636719 C 17.222656 19.710938 16.542969 20.566406 15.703125 21.078125 C 15.15625 21.238281 14.6875 21.566406 14.269531 22.074219 C 14.175781 22.527344 14.1875 22.765625 14.300781 23.199219 C 14.140625 23.152344 14.074219 23.28125 13.980469 23.367188 C 13.527344 22.800781 13.074219 22.246094 13.128906 21.453125 C 13.875 21.066406 14.761719 20.304688 15.023438 19.484375 C 14.78125 18.945312 14.054688 19.152344 13.722656 19.351562 C 13.09375 20.171875 12.234375 20.511719 11.171875 20.371094 C 10.605469 20.144531 10.265625 19.519531 10.179688 18.945312 C 9.953125 18.023438 11.039062 17.464844 11.585938 16.976562 C 12.933594 17.117188 12.359375 14.375 13.648438 15.808594 Z M 13.996094 16.929688 "/>
<path style=" stroke:none;fill-rule:evenodd;fill:rgb(13.72549%,12.156863%,12.54902%);fill-opacity:1;" d="M 67.21875 12.347656 L 66.578125 12.367188 C 65.785156 13.882812 64.570312 16.082031 62.644531 16.324219 L 65.117188 18.851562 C 66.058594 19.417969 67.5 19.738281 68.507812 19.097656 C 69.667969 18.4375 70.160156 17.222656 70.214844 15.988281 C 69.789062 14.527344 68.519531 13.300781 67.21875 12.347656 Z M 68.140625 17.164062 C 67.792969 17.738281 67.226562 17.816406 66.707031 18.011719 C 66.085938 18.042969 65.792969 17.210938 65.238281 17.070312 C 65.453125 15.996094 66.625 15.148438 67.445312 14.441406 C 67.90625 14.355469 68.265625 14.894531 68.425781 15.234375 C 68.8125 15.863281 68.480469 16.617188 68.140625 17.164062 Z M 68.140625 17.164062 "/>
<path style=" stroke:none;fill-rule:evenodd;fill:rgb(13.72549%,12.156863%,12.54902%);fill-opacity:1;" d="M 73.675781 19.625 C 71.761719 20.164062 69.433594 21.078125 68.753906 23.121094 L 68.59375 23.28125 C 67.925781 22.566406 67.425781 21.773438 67.09375 20.898438 C 69.253906 20.972656 70.949219 19.324219 72.023438 17.5625 C 72.875 17.824219 73.128906 18.9375 73.675781 19.625 Z M 73.675781 19.625 "/>
<path style=" stroke:none;fill-rule:evenodd;fill:rgb(13.72549%,12.156863%,12.54902%);fill-opacity:1;" d="M 11.441406 24.5625 C 10.574219 24.527344 10.492188 23.574219 10.273438 22.972656 C 9.578125 22.753906 9.050781 22.09375 8.164062 22.367188 C 6.496094 23.5 5.949219 25.609375 5.382812 27.4375 C 7.429688 27.535156 9.433594 28.109375 10.746094 29.730469 C 11.292969 29.070312 11.605469 28.316406 11.660156 27.457031 C 10.898438 27.4375 10.472656 27.710938 9.878906 27.175781 C 9.964844 26.515625 10.226562 25.914062 10.652344 25.382812 C 11.539062 24.941406 11.972656 26.054688 12.453125 26.316406 C 12.960938 25.714844 13.226562 25.027344 13.535156 24.355469 C 12.921875 24.148438 12.253906 24.742188 11.441406 24.5625 Z M 8.417969 26.5625 C 7.890625 26.441406 6.785156 26.328125 7.105469 25.46875 C 7.71875 24.902344 8.144531 23.3125 9.179688 24.292969 C 9.386719 25.234375 8.953125 25.921875 8.417969 26.5625 Z M 8.417969 26.5625 "/>
<path style=" stroke:none;fill-rule:evenodd;fill:rgb(13.72549%,12.156863%,12.54902%);fill-opacity:1;" d="M 75.691406 22.800781 C 74.457031 21.425781 71.988281 21.660156 70.855469 23.066406 C 70.28125 24.054688 69.96875 25.554688 70.609375 26.621094 C 71.328125 27.675781 72.402344 28.496094 73.722656 28.324219 C 74.785156 28.144531 75.890625 27.410156 76.425781 26.648438 C 76.664062 25.355469 76.652344 23.761719 75.691406 22.800781 Z M 75.117188 26.195312 C 74.429688 26.855469 73.316406 27.035156 72.390625 26.734375 C 71.703125 26.382812 71.796875 25.6875 71.554688 25.148438 C 71.808594 24.320312 72.089844 23.566406 72.957031 23.179688 C 73.882812 23.074219 74.871094 23.140625 75.238281 24.09375 C 75.445312 24.695312 75.617188 25.675781 75.117188 26.195312 Z M 75.117188 26.195312 "/>
<path style=" stroke:none;fill-rule:evenodd;fill:rgb(13.72549%,12.156863%,12.54902%);fill-opacity:1;" d="M 6.25 29.984375 C 4.976562 30.683594 4.589844 32 4.382812 33.246094 C 4.769531 33.707031 5.222656 34.019531 5.855469 33.867188 C 6.550781 33.332031 5.835938 32.613281 5.976562 31.925781 C 6.570312 32.078125 7.230469 32.046875 7.75 32.371094 C 8.125 33.125 6.257812 33.605469 7.636719 34.140625 C 8.804688 34.359375 8.851562 33.011719 9.210938 32.332031 C 9.453125 31.625 8.730469 31.332031 8.679688 30.738281 C 9.417969 30.585938 9.933594 30.964844 10.472656 31.34375 C 10.191406 32.867188 9.21875 34.132812 9.113281 35.734375 C 8.492188 36.242188 8.078125 35.207031 7.492188 35.113281 C 5.996094 35.28125 4.769531 34.234375 3.289062 34.886719 C 3.042969 34.621094 3.035156 34.039062 3.261719 33.753906 C 3.714844 32.292969 4.167969 30.84375 4.617188 29.382812 C 5.355469 29.097656 5.710938 29.757812 6.25 29.984375 Z M 6.25 29.984375 "/>
<path style=" stroke:none;fill-rule:evenodd;fill:rgb(13.72549%,12.156863%,12.54902%);fill-opacity:1;" d="M 78.21875 28.542969 L 77.738281 28.550781 C 76.972656 30.25 75.042969 29.964844 73.589844 30.417969 C 73.136719 30.324219 72.910156 30.324219 72.457031 30.4375 L 72.824219 32.371094 C 73.457031 33.332031 73.742188 31.679688 74.429688 31.839844 C 74.804688 32.125 75.023438 32.480469 74.929688 32.964844 C 74.503906 33.511719 73.984375 33.886719 73.34375 33.960938 C 73.335938 34.828125 73.335938 35.820312 74.03125 36.214844 C 74.144531 35.941406 74.484375 35.773438 74.34375 35.40625 C 74.671875 34.773438 75.285156 34.105469 76.085938 34.226562 C 76.617188 35.054688 77.8125 34.648438 78.511719 34.488281 C 80.601562 32.90625 78.566406 30.417969 78.21875 28.542969 Z M 77.03125 32.914062 C 76.359375 32.804688 76.425781 32.085938 76.191406 31.644531 C 76.585938 30.8125 77.917969 31.117188 77.652344 32.097656 C 77.679688 32.578125 77.433594 32.773438 77.03125 32.914062 Z M 77.03125 32.914062 "/>
<path style=" stroke:none;fill-rule:evenodd;fill:rgb(13.72549%,12.156863%,12.54902%);fill-opacity:1;" d="M 8.585938 40.738281 C 8.8125 41.316406 8.3125 41.878906 7.804688 41.878906 C 6.097656 42.730469 4.082031 42.851562 2.695312 44.414062 C 2.496094 43.71875 2.28125 42.605469 2.800781 41.992188 C 4.195312 42.605469 5.261719 41.539062 6.324219 40.945312 C 5.917969 39.871094 4.582031 39.796875 3.703125 39.230469 L 2.582031 39.410156 C 2.742188 38.5625 2.496094 37.542969 3.015625 36.828125 C 4.535156 38.617188 6.625 39.675781 8.585938 40.738281 Z M 8.585938 40.738281 "/>
<path style=" stroke:none;fill-rule:evenodd;fill:rgb(13.72549%,12.156863%,12.54902%);fill-opacity:1;" d="M 80.019531 36.554688 C 80.328125 37.308594 80.167969 38.269531 80.234375 39.128906 C 79.199219 38.46875 77.738281 38.402344 76.519531 38.730469 C 76.132812 38.835938 75.890625 39.277344 75.570312 39.550781 C 75.390625 40.410156 75.832031 41.15625 76.578125 41.476562 C 77.8125 41.476562 79.039062 41.476562 79.953125 40.75 L 80.433594 40.738281 C 79.914062 41.617188 80.847656 42.457031 80.328125 43.324219 C 79.652344 43.558594 79.394531 42.679688 78.859375 42.550781 C 77.257812 42.457031 75.210938 43.085938 74.324219 41.523438 C 73.675781 40.550781 73.996094 39.175781 74.570312 38.289062 C 75.710938 36.753906 78.300781 37.855469 79.699219 36.5625 Z M 80.019531 36.554688 "/>
<path style=" stroke:none;fill-rule:evenodd;fill:rgb(13.72549%,12.156863%,12.54902%);fill-opacity:1;" d="M 76.011719 44.859375 C 77.273438 45.3125 78.5 46.359375 79.90625 45.90625 C 80.027344 46.347656 80.394531 46.695312 80.09375 47.1875 C 79.140625 47.902344 76.859375 47.6875 77.246094 49.355469 C 78.03125 50.515625 80.179688 51.050781 78.925781 52.703125 C 78.832031 52.898438 78.632812 52.863281 78.453125 52.871094 L 77.792969 52.238281 C 76.183594 52.324219 74.351562 51.457031 72.957031 52.511719 C 72.742188 52.457031 72.421875 52.652344 72.308594 52.363281 C 72.589844 51.625 72.449219 50.296875 73.402344 50.242188 C 73.742188 51.34375 75.089844 50.5625 75.832031 50.996094 C 76.050781 50.710938 76.457031 50.882812 76.625 50.496094 C 76.238281 49.683594 75.511719 49.007812 74.964844 48.261719 C 75.625 47.648438 76.597656 47.707031 77.191406 46.921875 C 76.550781 46.394531 75.84375 46.035156 75.070312 45.847656 C 74.691406 45.960938 74.429688 46.320312 73.949219 46.199219 L 74.210938 43.773438 C 75.023438 43.625 75.351562 44.671875 76.011719 44.859375 Z M 76.011719 44.859375 "/>
<path style=" stroke:none;fill-rule:evenodd;fill:rgb(13.72549%,12.156863%,12.54902%);fill-opacity:1;" d="M 8.738281 47.667969 C 7.378906 46.308594 5.75 47.695312 4.222656 47.761719 C 3.910156 48.148438 3.601562 48.675781 3.28125 48.910156 C 2.914062 48.195312 2.535156 46.988281 2.894531 46.007812 C 3.289062 46.046875 3.476562 46.613281 3.875 46.640625 C 5.4375 46.273438 7.296875 46.648438 8.53125 45.566406 C 8.824219 46.160156 8.699219 47.148438 8.738281 47.667969 Z M 8.738281 47.667969 "/>
<path style=" stroke:none;fill-rule:evenodd;fill:rgb(13.72549%,12.156863%,12.54902%);fill-opacity:1;" d="M 59.835938 33.699219 C 60.667969 33.066406 61.25 34.121094 62.097656 33.972656 C 62.335938 33.773438 62.824219 33.6875 63.0625 33.953125 C 63.222656 33.652344 63.597656 33.832031 63.863281 33.773438 C 64.3125 33.734375 64.277344 33.226562 64.492188 32.953125 C 59.320312 32.285156 60.921875 26.355469 57.507812 23.761719 C 57.726562 22.746094 58.367188 21.90625 58.082031 20.691406 C 57.714844 20.292969 57.546875 19.378906 56.773438 19.585938 C 56.492188 20.050781 56.320312 20.4375 55.832031 20.738281 C 54.605469 21.03125 53.917969 19.953125 52.910156 19.671875 C 50.808594 20.179688 51.53125 17.75 49.789062 17.335938 C 49.0625 17.210938 47.675781 16.855469 47.394531 17.871094 L 48.542969 19.136719 C 49.082031 20.351562 48.414062 21.492188 47.980469 22.527344 C 47.96875 23.632812 48.601562 24.460938 49.328125 25.234375 C 49.601562 25.675781 49.394531 26.769531 50.324219 26.507812 C 51.25 26.089844 51.289062 25.195312 51.882812 24.375 C 52.164062 24.355469 52.324219 24.6875 52.542969 24.847656 C 52.523438 26.015625 54.132812 26.46875 53.570312 27.882812 C 53.085938 29.457031 51.390625 29.578125 50.421875 30.691406 C 49.222656 30.558594 48.542969 31.578125 47.535156 31.878906 C 46.753906 31.671875 46.761719 30.824219 46.386719 30.296875 C 46.535156 30.183594 46.621094 29.898438 46.855469 29.964844 C 47.28125 29.816406 47.394531 29.636719 47.320312 29.144531 C 46.855469 28.496094 46.1875 28.363281 45.527344 28.222656 C 43.425781 26.410156 45.894531 24.121094 45.707031 21.933594 C 45.507812 19.238281 42.191406 20.257812 40.34375 19.632812 C 39.175781 21.03125 36.308594 19.570312 35.875 21.671875 C 36.253906 21.914062 35.761719 22.828125 36.546875 22.621094 C 36.46875 22.394531 36.753906 22.292969 36.855469 22.132812 C 38.128906 21.859375 39.65625 22.320312 40.429688 23.5 C 39.382812 23.921875 38.296875 22.367188 37.203125 23.414062 C 37.65625 23.953125 38.46875 23.574219 38.835938 24.339844 C 40.191406 24.96875 39.597656 26.667969 39.550781 27.710938 C 39.117188 29.171875 37.554688 29.363281 36.554688 30.191406 C 36.402344 30.636719 36.828125 30.8125 36.894531 31.152344 C 36.449219 32.40625 35.1875 31.757812 34.328125 31.53125 C 33.5 30.851562 31.804688 30.984375 31.859375 29.496094 C 31.425781 29.476562 31.277344 28.757812 30.730469 29.03125 C 30.503906 28.769531 30.117188 28.578125 30.058594 28.242188 C 29.34375 27.75 28.75 26.78125 29.203125 25.847656 C 30.390625 24.375 30.710938 27.109375 32.113281 26.589844 C 31.945312 25.207031 32.832031 24.234375 33.492188 23.167969 C 33.933594 21.859375 33.292969 20.632812 32.925781 19.484375 C 32.972656 18.617188 34.027344 18.4375 34.019531 17.683594 C 32.398438 16.917969 30.597656 18.285156 30.523438 19.851562 C 29.503906 20.738281 28.175781 20.898438 26.84375 21.066406 C 26.175781 20.878906 25.847656 19.824219 25.046875 19.972656 C 24.789062 20.425781 24.433594 20.832031 24.59375 21.433594 C 24.367188 22.453125 24.941406 23.261719 25.769531 23.667969 C 24.761719 25.414062 24 27.261719 23.480469 29.203125 C 22.332031 31.230469 20.304688 31.917969 18.398438 32.53125 C 18.757812 33.652344 20.144531 33.605469 21.160156 33.753906 C 21.8125 33.660156 22.859375 33.125 23.261719 33.867188 C 21.132812 37.347656 22.171875 42.199219 18.511719 44.945312 L 19.644531 45.074219 C 22.90625 44.960938 23.441406 41.265625 24.828125 39.164062 L 24.988281 39.324219 C 24.253906 43.679688 25.394531 49.195312 21.246094 51.816406 C 22.273438 52.269531 23.292969 52.25 24.300781 51.738281 C 26.214844 50.183594 26.941406 47.882812 27.230469 45.554688 C 27.628906 43.933594 27.523438 42.125 28.410156 40.691406 C 29.0625 41.390625 28.53125 42.617188 28.949219 43.417969 C 28.589844 47.828125 30.4375 53.21875 27.148438 56.347656 C 27.421875 56.453125 27.601562 56.792969 27.957031 56.652344 C 31.53125 55.632812 30.925781 51.304688 31.3125 48.207031 C 31.550781 46.742188 31.292969 45.105469 32.019531 43.832031 C 32.144531 44.480469 32.5 45.007812 32.386719 45.765625 L 32.867188 45.746094 C 33.253906 43.917969 33.886719 42.171875 34.039062 40.25 L 34.347656 39.917969 L 34.847656 40.390625 C 35.148438 40.109375 35.582031 39.597656 35.621094 39.082031 C 35.789062 39.703125 36.007812 40.304688 35.988281 41.003906 C 35.207031 42.164062 36.375 44.085938 35.113281 45.058594 C 34.527344 46.46875 34.914062 48.269531 35.527344 49.554688 C 35.855469 51.324219 35.328125 53.296875 33.867188 54.425781 C 33.398438 54.058594 33.058594 53.625 33.199219 52.992188 C 33.046875 52.382812 32.660156 52.011719 32.039062 51.890625 C 31.9375 52.550781 31.710938 53.152344 31.277344 53.683594 C 31.003906 54.671875 32 55.238281 32.613281 55.90625 C 31.964844 57.847656 28.371094 55.398438 29.117188 58.234375 L 29.929688 58.214844 C 31.417969 59.207031 32.320312 57.027344 33.765625 57.007812 C 34.566406 58.128906 32.453125 58.933594 32.707031 60.25 C 33.558594 60.101562 34.40625 59.941406 34.941406 59.074219 C 34.554688 57.347656 36.5625 56.546875 37.601562 55.792969 C 38.910156 55.726562 38.195312 54.3125 38.363281 53.519531 C 37.75 53.632812 37.375 54.246094 36.761719 54.359375 C 36.488281 54.199219 36.488281 53.90625 36.273438 53.730469 C 36.734375 52.476562 37.082031 51.03125 38.128906 50.148438 C 39.628906 52.605469 39.457031 55.8125 39.769531 58.808594 C 39.597656 59.882812 38.796875 58.800781 38.15625 59.167969 C 37.394531 59.480469 37.667969 60.460938 37.402344 61.109375 C 36.78125 60.75 36.09375 60.5625 35.300781 60.675781 C 34.972656 60.816406 34.453125 61.164062 34.679688 61.65625 C 36.054688 62.164062 35.933594 63.769531 37.15625 64.34375 C 37.054688 64.550781 36.847656 64.503906 36.667969 64.511719 C 36.035156 64.765625 35.082031 65.464844 35.261719 66.3125 C 36.289062 66.3125 37.234375 67.027344 38.167969 66.738281 C 38.535156 66.738281 38.9375 66.632812 39.148438 67.039062 C 39.308594 67.925781 39.742188 68.839844 40.644531 69.253906 C 41.644531 68.933594 42.925781 68.300781 43.171875 67.265625 C 42.925781 65.359375 44.800781 67.527344 45.734375 66.566406 C 46.320312 66.433594 47.046875 67.320312 47.347656 66.53125 C 47.449219 65.230469 45.894531 64.9375 45.519531 63.992188 C 46.339844 63.605469 46.78125 62.371094 47.742188 62.335938 C 47.828125 61.871094 47.574219 61.550781 47.394531 61.214844 C 46.488281 60.589844 45.28125 61.089844 44.332031 61.277344 C 43.839844 60.863281 44.558594 60.515625 44.300781 59.996094 C 44.125 59.320312 43.386719 59.308594 42.832031 59.222656 C 41.777344 57.507812 42.644531 55.359375 42.550781 53.425781 C 43.058594 52.238281 42.585938 50.382812 44.078125 49.84375 C 46.027344 50.222656 45.601562 52.484375 45.941406 53.992188 C 45.207031 54.878906 44.585938 53.4375 43.679688 53.730469 L 43.867188 54.839844 C 44.019531 55.285156 44.480469 55.632812 45.007812 55.464844 C 46.460938 56.027344 47.828125 56.914062 47.980469 58.621094 C 48.46875 59.261719 49.316406 58.960938 49.777344 59.703125 C 50.070312 59.480469 49.863281 59.0625 49.910156 58.742188 C 49.554688 57.90625 48.007812 57.386719 48.574219 56.359375 C 49.769531 57.273438 51.335938 57.800781 52.785156 57.546875 C 52.277344 55.585938 50.042969 56.246094 49.023438 55.21875 C 49.5625 54.632812 50.515625 55.019531 50.9375 54.210938 C 51.242188 53.136719 50.335938 52.605469 50.402344 51.636719 C 48.535156 51.496094 49.507812 53.710938 48.367188 54.265625 C 47.808594 54.226562 47.828125 53.765625 47.386719 53.472656 C 45.894531 50.109375 48.675781 47.289062 46.6875 44.152344 C 47.242188 42.625 46.101562 40.625 46.894531 38.996094 C 47.433594 39.230469 47.449219 39.996094 47.894531 40.417969 C 48.128906 40.476562 48.214844 40.191406 48.367188 40.089844 L 48.695312 40.398438 C 48.816406 42.277344 49.183594 44.039062 49.789062 45.6875 C 50.316406 45.027344 50.277344 44.132812 50.703125 43.417969 L 51.03125 43.738281 L 51.722656 53.378906 L 52.417969 55.304688 C 52.917969 56.414062 54.117188 57.234375 55.359375 57.167969 L 55.351562 56.847656 C 53.984375 55.832031 54.152344 54.152344 53.804688 52.691406 C 53.945312 49.089844 53.832031 45.394531 54.210938 41.890625 L 54.519531 41.558594 C 55.707031 45.339844 55.464844 49.890625 58.800781 52.578125 C 59.609375 52.617188 60.429688 53.136719 61.222656 52.683594 L 61.222656 52.371094 C 58.101562 50.355469 57.867188 46.214844 57.761719 42.457031 L 58.082031 42.125 C 58.195312 42.417969 58.507812 42.21875 58.726562 42.277344 C 59.460938 43.050781 60.015625 43.886719 60.402344 44.8125 C 61.136719 45.847656 62.210938 46.742188 63.503906 46.679688 C 63.984375 46.394531 64.8125 46.59375 64.9375 45.839844 C 60.136719 43.597656 62.015625 37.535156 59.835938 33.699219 Z M 52.34375 30.644531 C 52.382812 31.050781 51.929688 30.972656 51.710938 31.144531 C 51.523438 30.71875 52.050781 30.617188 52.34375 30.644531 Z M 40.464844 25.109375 C 40.863281 24.820312 41.476562 25.035156 41.738281 24.441406 C 41.824219 22.886719 40.316406 22.1875 39.25 21.433594 C 39.070312 21.433594 38.875 21.480469 38.769531 21.285156 C 40.371094 21.125 41.398438 23.433594 42.984375 22.3125 C 43.417969 21.585938 41.992188 21.113281 42.945312 20.710938 C 43.90625 20.652344 44.546875 21.21875 44.746094 22.113281 C 44.773438 24.347656 42.390625 27.710938 45.386719 29.03125 L 45.546875 29.183594 C 44.800781 29.230469 44.59375 30.472656 43.632812 30.039062 C 43.171875 29.71875 42.878906 28.9375 42.164062 29.257812 L 41.539062 30.089844 C 41.03125 28.816406 39.742188 29.542969 38.96875 29.976562 C 40.464844 28.890625 40.683594 27.015625 40.464844 25.109375 Z M 37.554688 31.945312 C 38.230469 31.132812 39.382812 31.378906 40.277344 31.078125 C 40.9375 31.371094 40.890625 32.398438 41.75 32.171875 L 42.519531 30.859375 C 43.925781 31.90625 46.234375 29.796875 46.261719 32.558594 C 46 33.398438 45.667969 34.207031 44.867188 34.839844 C 43.707031 34.132812 43.757812 32.605469 43.179688 31.492188 C 41.910156 31.558594 42.359375 33.414062 41.136719 33.632812 C 40.589844 33.039062 40.210938 32.359375 40.117188 31.566406 C 39.382812 31.878906 39.617188 32.867188 39.363281 33.511719 C 38.796875 33.933594 38.636719 34.941406 37.78125 34.839844 C 36.980469 33.992188 37.148438 32.914062 37.554688 31.945312 Z M 43.097656 34.554688 C 42.585938 35.5 42.132812 36.882812 41.050781 37.175781 C 40.597656 36.347656 39.65625 35.527344 40.183594 34.460938 C 41.332031 36.261719 42.503906 32.90625 43.097656 34.554688 Z M 36.835938 43.085938 C 37.921875 43.699219 38.648438 42.597656 39.5625 42.378906 L 39.890625 42.691406 C 39.789062 43.765625 38.882812 44.679688 38.015625 45.3125 C 37.101562 45.28125 37.128906 44.265625 36.695312 43.726562 C 36.742188 43.519531 36.546875 43.210938 36.835938 43.085938 Z M 37.882812 39.195312 C 37.894531 39.289062 37.882812 39.355469 37.855469 39.410156 C 37.894531 39.871094 38.628906 39.484375 38.855469 39.816406 C 38.957031 40.65625 38.863281 41.425781 38.101562 41.925781 C 37.695312 42.117188 37.5625 41.617188 37.28125 41.464844 C 36.980469 40.976562 37.15625 40.289062 37.082031 39.691406 C 37.222656 39.371094 37.734375 39.65625 37.855469 39.410156 C 37.855469 39.355469 37.863281 39.277344 37.882812 39.195312 Z M 34.667969 32.652344 C 34.554688 32.945312 34.246094 32.765625 34.039062 32.832031 L 33.867188 32.671875 C 34.105469 32.578125 34.460938 32.332031 34.667969 32.652344 Z M 35.78125 39.082031 L 35.773438 38.75 L 35.921875 38.261719 Z M 35.855469 35.035156 C 35.054688 35.613281 35.488281 36.65625 34.933594 37.316406 C 34.566406 37.140625 34.414062 36.148438 33.632812 36.546875 C 33.152344 37.902344 33.398438 39.550781 32.925781 40.917969 C 32.625 40.4375 32.785156 39.730469 32.71875 39.148438 L 33.199219 38.65625 C 31.585938 38.441406 33.027344 35.121094 31.21875 36.761719 C 31.132812 37.882812 30.8125 39.128906 30.972656 40.15625 L 30.210938 49.355469 L 30.050781 49.515625 C 30.265625 44.839844 29.171875 40.164062 29.410156 35.179688 L 29.078125 34.546875 C 28.269531 35.113281 27.789062 35.828125 27.503906 36.628906 C 27.515625 36.648438 27.515625 36.65625 27.515625 36.675781 L 27.476562 36.714844 C 26.84375 38.636719 27.242188 41.03125 26.683594 42.992188 C 25.78125 45.6875 26.335938 48.96875 23.96875 51.097656 L 23.648438 51.109375 C 26.609375 46.90625 25.441406 41.089844 26.695312 36.214844 C 25.976562 35.527344 27.429688 34.074219 26.007812 34.132812 C 24.347656 37.128906 23.152344 40.316406 21.378906 43.265625 C 21.257812 42.578125 22.273438 41.925781 22.453125 41.144531 C 22.632812 38.082031 23.753906 35.40625 24.847656 32.707031 C 24.78125 32.425781 24.996094 31.871094 24.507812 31.917969 C 23.28125 32.132812 22.339844 33.027344 20.984375 32.964844 L 20.339844 32.972656 C 21.367188 32.039062 22.867188 31.558594 23.820312 30.152344 C 25.582031 28.070312 25.261719 25.1875 27.542969 23.3125 C 27.683594 21.699219 24.835938 23.28125 25.5625 21.417969 C 27.269531 22.960938 29.097656 21.125 30.859375 20.972656 C 31.292969 20.425781 31.257812 19.691406 31.792969 19.183594 C 32.160156 20.597656 33.519531 22.828125 31.746094 24.179688 C 31.277344 24.949219 30.652344 24.09375 29.976562 24.375 C 29.324219 24.253906 29.15625 23.433594 29.457031 22.941406 C 29.605469 22.992188 29.683594 22.867188 29.777344 22.773438 C 30.058594 22.980469 29.890625 23.40625 30.285156 23.566406 C 30.683594 23.679688 30.984375 23.40625 31.070312 23.066406 C 31.324219 22.40625 30.664062 22.019531 30.238281 21.792969 C 29.390625 21.605469 28.710938 22.105469 28.324219 22.640625 C 28.035156 23.253906 28.277344 24.226562 28.210938 24.742188 C 27.46875 24.867188 26.347656 25.082031 25.988281 26.082031 C 25.976562 27.296875 24.941406 28.109375 24.933594 29.324219 C 24.734375 29.816406 24.035156 30.304688 24.320312 30.785156 C 25.640625 30.257812 25.480469 28.628906 26.835938 27.835938 C 26.835938 27.648438 26.78125 27.449219 26.976562 27.34375 C 27.683594 27.175781 28.195312 28.203125 28.9375 28.269531 C 28.910156 28.515625 29.210938 28.628906 29.117188 28.910156 L 28.957031 29.078125 C 28.644531 28.589844 28.164062 28.570312 27.65625 28.617188 C 26.949219 30.464844 25.382812 31.984375 24.707031 33.839844 L 24.875 34 C 25.5625 32.511719 27.175781 31.785156 27.695312 30.230469 C 28.804688 30.84375 29.75 29.65625 30.746094 29.992188 C 30.699219 30.265625 30.898438 30.636719 30.605469 30.804688 C 30.25 30.644531 29.929688 30.398438 29.464844 30.511719 C 28.164062 31.3125 28.222656 32.925781 27.128906 33.945312 C 26.988281 34.859375 26.84375 35.78125 26.714844 36.695312 C 26.875 36.800781 26.96875 37.074219 27.195312 37.007812 L 27.476562 36.714844 C 27.488281 36.6875 27.496094 36.65625 27.503906 36.628906 C 27.46875 34.988281 28.417969 33.734375 28.863281 32.292969 C 29.65625 31.171875 31.246094 32.605469 32.066406 31.417969 C 32.265625 31.558594 32.738281 31.445312 32.558594 31.898438 C 32.265625 32.339844 31.972656 31.757812 31.597656 31.917969 C 29.589844 33.207031 30.257812 35.820312 29.957031 37.910156 L 30.285156 38.222656 C 30.699219 37.347656 30.664062 36.289062 31.191406 35.46875 C 31.199219 34.761719 30.691406 33.945312 31.304688 33.367188 C 32.011719 33.226562 32.59375 33.726562 33.238281 33.332031 C 33.199219 34.246094 32.691406 35.167969 33.140625 36.0625 C 33.585938 35.679688 33.539062 35.09375 33.746094 34.601562 C 34.433594 34.054688 35.367188 33.734375 35.808594 32.953125 C 35.988281 32.953125 36.1875 32.898438 36.289062 33.09375 C 36.140625 33.367188 35.640625 33.511719 35.828125 33.914062 C 36.808594 34.59375 37.140625 37.242188 38.769531 35.941406 C 39.082031 36.375 39.628906 37.101562 38.96875 37.554688 C 38.289062 38.582031 37.261719 37.6875 36.867188 36.949219 C 36.355469 36.394531 36.527344 35.527344 35.855469 35.035156 Z M 38.5625 48.035156 C 37.941406 48.542969 37.261719 49.175781 36.480469 48.5625 C 35.640625 48.28125 35.980469 46.96875 36.101562 46.320312 C 36.800781 45.828125 37.261719 47.640625 38.214844 46.761719 L 38.84375 46.253906 C 39.996094 46.601562 38.796875 47.507812 38.5625 48.035156 Z M 39.390625 49.308594 L 39.722656 49.617188 C 40.003906 51.164062 40.324219 52.683594 40.464844 54.277344 L 40.144531 53.964844 Z M 39.949219 45.433594 C 39.996094 44.707031 40.335938 43.953125 41.042969 43.632812 C 42.070312 43.492188 42.03125 44.6875 42.519531 45.21875 C 42.277344 45.875 41.871094 46.480469 41.277344 47.007812 C 40.363281 46.980469 40.390625 45.960938 39.949219 45.433594 Z M 41.398438 59.894531 C 41.625 60.082031 41.625 60.363281 41.898438 60.523438 C 42.285156 60.554688 42.558594 60.347656 42.859375 60.1875 C 43.679688 60.96875 41.691406 62.0625 43.398438 62.589844 C 44.339844 62.644531 44.847656 61.675781 45.792969 61.730469 C 45.875 62.304688 45.527344 62.84375 45.019531 63.03125 C 44.273438 62.957031 43.492188 63.117188 43.257812 63.878906 C 43.210938 64.71875 43.953125 65.050781 44.585938 65.304688 C 44.945312 65.304688 45.347656 65.210938 45.554688 65.605469 C 44.207031 66.207031 43.164062 63.984375 41.832031 65.039062 C 41.464844 66.351562 43.019531 67.847656 40.9375 68.121094 C 39.136719 67.867188 41.171875 64.578125 38.949219 65.425781 C 38.441406 65.773438 37.847656 66.40625 37.1875 65.945312 L 37.015625 65.792969 C 37.835938 65.40625 38.824219 65.097656 39.242188 64.136719 C 39.0625 63.796875 38.9375 63.429688 38.582031 63.183594 C 37.976562 62.917969 37.195312 63.15625 36.78125 62.410156 C 37.574219 63.164062 39.308594 62.222656 39.550781 63.636719 C 39.257812 63.769531 39.457031 64.070312 39.402344 64.296875 C 39.609375 64.578125 39.882812 64.644531 40.222656 64.597656 C 40.65625 65.03125 39.976562 66.519531 41.21875 66.019531 C 41.625 65.324219 41.503906 63.851562 42.785156 64.050781 C 42.945312 63.71875 43.304688 63.269531 42.917969 62.917969 C 41.796875 62.578125 42.632812 61.375 41.910156 60.84375 C 41.171875 60.949219 40.277344 60.648438 39.824219 61.382812 C 39.363281 61.335938 39.035156 60.929688 38.683594 60.601562 L 38.675781 60.28125 C 39.4375 60.136719 40.15625 61.65625 40.769531 60.394531 C 40.398438 58.941406 41.910156 58.214844 41.332031 56.679688 L 41.484375 56.507812 L 41.324219 56.359375 C 41.644531 53.878906 41.71875 51.304688 42.285156 48.921875 L 42.617188 49.242188 C 40.992188 52.316406 42.050781 56.433594 41.398438 59.894531 Z M 41.15625 41.699219 C 40.53125 40.757812 39.523438 39.777344 40.117188 38.496094 C 41.105469 39.683594 43.644531 37.203125 42.730469 39.890625 C 42.484375 40.597656 42.105469 41.683594 41.15625 41.699219 Z M 42.945312 42.144531 C 43.832031 42.417969 44.992188 43.539062 45.847656 42.398438 C 46.027344 43.3125 45.726562 44.425781 44.933594 45.160156 C 44.058594 45.28125 43.238281 44.511719 42.972656 43.757812 C 42.71875 43.324219 42.699219 42.585938 42.945312 42.144531 Z M 45.292969 39.355469 L 45.613281 39.34375 C 45.820312 40.296875 45.433594 41.03125 44.699219 41.617188 C 44.199219 41.324219 43.804688 41.125 43.707031 40.511719 C 43.425781 39.257812 44.90625 40.050781 45.292969 39.355469 Z M 46.140625 48.347656 C 45.601562 48.714844 44.867188 49.082031 44.207031 48.722656 C 43.71875 48.09375 43.03125 47.980469 43.050781 47.128906 C 43.839844 45.875 45.300781 47.515625 46.09375 46.261719 C 46.828125 46.847656 46.121094 47.660156 46.140625 48.347656 Z M 49.28125 37.476562 C 49.28125 37.089844 49.109375 36.769531 48.769531 36.527344 C 48.429688 36.574219 48.242188 36.96875 47.988281 37.1875 C 47.554688 36.433594 47.460938 35.527344 46.855469 34.847656 C 46.800781 34.867188 46.742188 34.886719 46.6875 34.914062 C 45.792969 35.921875 45.773438 38.230469 43.972656 38.082031 C 43.511719 37.734375 43.050781 37.175781 43.464844 36.648438 C 44.285156 35.535156 45.667969 36.808594 46.167969 35.292969 C 46.300781 35.113281 46.480469 35 46.6875 34.914062 C 46.726562 34.867188 46.761719 34.828125 46.800781 34.792969 C 46.820312 34.8125 46.839844 34.828125 46.855469 34.847656 C 47.5625 34.59375 48.421875 34.546875 48.222656 33.472656 C 47.996094 33.1875 47.574219 33.386719 47.253906 33.332031 C 47.207031 32.953125 47.628906 33.011719 47.894531 33 C 48.441406 33.453125 49.054688 33.765625 49.835938 33.605469 C 49.957031 34.621094 49.0625 35.441406 49.410156 36.347656 Z M 49.636719 39.089844 C 49.949219 39.9375 49.769531 40.390625 49.84375 41.34375 C 49.296875 40.945312 49.457031 39.75 49.636719 39.089844 Z M 58.375 40.992188 L 57.90625 41.164062 C 57.667969 40.191406 57.960938 39.597656 57.839844 38.589844 C 58.121094 39.34375 58.507812 40.050781 58.375 40.992188 Z M 58.421875 35.988281 C 58.714844 35.78125 58.78125 35.507812 58.726562 35.179688 L 58.402344 34.859375 C 57.96875 35.367188 57.714844 34.386719 57.261719 34.394531 L 56.953125 34.894531 C 56.265625 40.015625 56.539062 45.3125 57.773438 50.183594 C 57.746094 50.070312 57.207031 48.808594 56.925781 48.109375 C 56.085938 44 56.433594 39.355469 54.398438 35.753906 C 54.164062 35.695312 54.078125 35.980469 53.917969 36.09375 L 53.53125 40.457031 L 52.9375 49.976562 L 53.03125 54.003906 C 52.238281 52.390625 52.410156 50.363281 52.109375 48.542969 C 52.230469 44.671875 52.34375 40.398438 51.03125 36.960938 C 50.824219 37.015625 50.503906 36.828125 50.402344 37.128906 C 50.324219 36.488281 49.777344 35.855469 50.195312 35.207031 C 51.03125 34.433594 50.324219 32.03125 51.910156 32.585938 C 52.070312 32.292969 52.4375 32.464844 52.710938 32.40625 C 53.117188 33.332031 52.382812 34.207031 51.964844 35.007812 C 51.609375 36.148438 52.003906 37.789062 52.371094 39.035156 C 52.863281 39.082031 52.523438 38.523438 52.84375 38.375 C 52.285156 37.574219 53.183594 36.742188 52.625 35.949219 C 53.023438 34.386719 54.386719 33 53.804688 31.257812 C 53.917969 30.964844 54.238281 31.132812 54.453125 31.085938 C 54.632812 31.90625 54.105469 32.859375 54.832031 33.652344 C 55.914062 34.167969 55.398438 35.667969 56.019531 36.527344 C 56.074219 35.328125 56.605469 33.527344 55.453125 32.671875 C 55.386719 31.679688 56 30.351562 55.058594 29.617188 C 54.632812 29.496094 54.425781 29.84375 54.105469 29.964844 C 53.804688 29.851562 53.984375 29.53125 53.925781 29.324219 C 54.453125 28.84375 55.046875 28.503906 55.851562 28.636719 C 55.332031 31.132812 58.402344 31.632812 58.066406 34.054688 L 58.394531 34.378906 C 58.453125 33.511719 58.261719 32.351562 57.847656 31.492188 C 56.480469 30.636719 57.339844 28.363281 56.453125 27.4375 C 56.359375 27.375 56.285156 27.308594 56.199219 27.242188 C 55.953125 27.101562 55.625 27.023438 55.171875 27.035156 C 55.058594 27.203125 54.785156 27.296875 54.851562 27.535156 C 53.953125 27.269531 55.132812 26.742188 54.984375 26.242188 C 55.152344 26.015625 55.398438 25.976562 55.625 25.894531 C 55.605469 26.542969 55.859375 26.941406 56.199219 27.242188 C 56.292969 27.296875 56.378906 27.363281 56.453125 27.4375 C 57.152344 27.929688 58.046875 28.25 58.121094 29.390625 L 58.613281 29.863281 L 58.761719 29.703125 C 58.414062 28.570312 58.046875 27.308594 57.246094 26.507812 C 56.433594 25.507812 56.3125 23.347656 54.445312 23.667969 C 54.085938 23.941406 53.777344 24.441406 54.152344 24.808594 L 54.3125 24.960938 L 54.003906 25.289062 C 52.109375 24.347656 53.898438 20.773438 50.84375 21.339844 L 50.535156 21.660156 L 50.703125 21.820312 L 50.542969 21.980469 L 50.382812 21.832031 C 49.863281 22.046875 50.148438 22.574219 50.082031 22.960938 C 50.277344 23.246094 50.570312 23.320312 50.890625 23.261719 L 51.523438 22.453125 L 52.011719 22.925781 C 51.757812 23.980469 49.949219 23.460938 50.289062 24.894531 C 49.496094 24.113281 48.375 22.78125 49.242188 21.527344 C 49.628906 20.871094 49.769531 20.117188 49.675781 19.265625 C 49.957031 19.738281 49.761719 20.566406 50.515625 20.699219 C 51.164062 20.40625 52.058594 20.191406 52.765625 20.484375 C 53.890625 21.453125 55.59375 21.925781 56.972656 21.199219 C 57.621094 21.59375 57.101562 22.234375 56.839844 22.652344 L 56.046875 23.480469 C 58.179688 25.035156 59.007812 27.457031 59.59375 29.84375 C 60.410156 31.019531 61.101562 32.546875 62.5625 33.152344 C 60.976562 33.265625 59.949219 31.925781 58.640625 31.3125 C 57.6875 32.878906 59.148438 34.199219 59.394531 35.640625 C 59.394531 38.042969 60.835938 39.824219 60.835938 42.230469 L 61.683594 44.300781 C 59.640625 41.957031 59.527344 38.769531 58.421875 35.988281 Z M 58.421875 35.988281 "/>
<path style=" stroke:none;fill-rule:evenodd;fill:rgb(13.72549%,12.156863%,12.54902%);fill-opacity:1;" d="M 9.945312 51.15625 L 9.964844 51.804688 C 9.40625 51.84375 8.839844 51.449219 8.351562 51.84375 C 7.476562 52.890625 6.851562 54.03125 6.484375 55.265625 C 7.605469 55.859375 8.34375 54.625 9.378906 54.558594 L 10.3125 53.25 C 10.945312 53.738281 11.105469 54.726562 11.492188 55.472656 C 9.453125 55.453125 7.550781 56.085938 6.382812 57.695312 C 5.449219 57.933594 5.609375 56.847656 5.222656 56.433594 C 4.996094 54.925781 6.464844 53.890625 6.097656 52.542969 C 5.34375 52.304688 4.863281 53.023438 4.503906 53.371094 C 3.796875 53.03125 3.808594 52.097656 3.816406 51.296875 C 5.53125 51.957031 6.816406 50.695312 8.324219 50.390625 C 8.851562 48.828125 9.859375 50.421875 9.945312 51.15625 Z M 9.945312 51.15625 "/>
<path style=" stroke:none;fill-rule:evenodd;fill:rgb(13.72549%,12.156863%,12.54902%);fill-opacity:1;" d="M 75.804688 57.441406 C 75.21875 58.019531 74.070312 57.640625 73.730469 58.453125 C 73.457031 58.402344 73.089844 58.601562 72.921875 58.308594 C 74.089844 57.167969 70.960938 55.738281 73.183594 55.71875 C 73.917969 55.878906 74.136719 54.859375 74.957031 55.191406 C 75.089844 56 75.351562 56.773438 75.804688 57.441406 Z M 75.804688 57.441406 "/>
<path style=" stroke:none;fill-rule:evenodd;fill:rgb(13.72549%,12.156863%,12.54902%);fill-opacity:1;" d="M 13.660156 58.667969 C 14.355469 59.347656 14.476562 60.476562 14.207031 61.402344 C 13.367188 63.011719 11.140625 63.109375 10.726562 65.03125 C 9.917969 65.03125 9.671875 63.9375 9.398438 63.277344 C 10.886719 62.929688 12.300781 62.089844 13.214844 60.769531 C 13.339844 59.96875 12.679688 59.355469 12.054688 59.027344 C 10.527344 59.015625 9.144531 59.628906 8.378906 61.035156 L 8.390625 61.375 C 7.53125 61.203125 7.390625 60.136719 7.058594 59.460938 C 9.191406 59.46875 10.574219 57.3125 12.839844 58.035156 Z M 13.660156 58.667969 "/>
<path style=" stroke:none;fill-rule:evenodd;fill:rgb(13.72549%,12.156863%,12.54902%);fill-opacity:1;" d="M 74.777344 61.648438 C 74.65625 62.382812 74.15625 63.257812 73.355469 63.445312 C 72.742188 62.003906 71.1875 60.828125 69.59375 60.796875 C 69.1875 61.25 68.660156 61.65625 68.660156 62.269531 C 69.273438 63.777344 70.902344 64.84375 72.429688 65.085938 C 72.117188 65.671875 71.875 66.425781 71.175781 66.726562 C 70.996094 66.53125 70.496094 66.519531 70.675781 66.097656 C 69.386719 64.644531 66.386719 63.457031 67.511719 61.003906 C 68.105469 60.222656 68.839844 59.769531 69.734375 59.65625 C 71.722656 59.496094 72.824219 61.65625 74.777344 61.648438 Z M 74.777344 61.648438 "/>
<path style=" stroke:none;fill-rule:evenodd;fill:rgb(13.72549%,12.156863%,12.54902%);fill-opacity:1;" d="M 16.863281 65.199219 C 16.46875 66.246094 16.890625 67.132812 16.769531 68.113281 C 15.875 68.214844 15.214844 67.226562 14.335938 67.839844 L 13.6875 67.539062 C 15.167969 66.691406 12.488281 63.757812 15.242188 65.078125 C 15.882812 65.359375 16.402344 64.4375 16.863281 65.199219 Z M 16.863281 65.199219 "/>
<path style=" stroke:none;fill-rule:evenodd;fill:rgb(13.72549%,12.156863%,12.54902%);fill-opacity:1;" d="M 64.378906 65.417969 C 63.796875 67.019531 65.378906 68.074219 66.257812 69.253906 C 66.859375 69.820312 67.1875 68.847656 67.6875 68.726562 C 68.574219 68.488281 67.566406 66.753906 68.792969 67.414062 C 69.179688 67.765625 69.574219 68.113281 69.460938 68.6875 C 67.746094 70.054688 66.40625 71.28125 64.699219 72.675781 C 63.851562 73.082031 63.824219 72.0625 63.390625 71.734375 C 64.058594 71.496094 65.085938 71.140625 65.453125 70.234375 C 64.304688 69.1875 63.824219 67.125 62.003906 67.074219 C 62.289062 66.339844 63.257812 65.871094 63.898438 65.265625 Z M 64.378906 65.417969 "/>
<path style=" stroke:none;fill-rule:evenodd;fill:rgb(13.72549%,12.156863%,12.54902%);fill-opacity:1;" d="M 24.867188 70.328125 C 24.414062 70.835938 23.753906 71.554688 22.972656 71.65625 C 23.085938 70.800781 22.359375 70.320312 21.800781 69.753906 C 21.320312 69.566406 21.09375 69.761719 20.671875 69.941406 C 19.878906 71.828125 23.734375 73.242188 21.265625 74.929688 C 20.246094 75.023438 19.277344 74.984375 18.664062 74.015625 C 19.117188 72.808594 15.941406 71.574219 18.4375 71.121094 C 19.304688 71.335938 19.3125 74.25 20.578125 72.835938 C 19.992188 71.742188 18.945312 70.65625 19.359375 69.320312 C 19.644531 68.699219 20.277344 68.207031 20.953125 68.160156 C 22.773438 67.914062 23.300781 70.308594 24.867188 70.328125 Z M 24.867188 70.328125 "/>
<path style=" stroke:none;fill-rule:evenodd;fill:rgb(13.72549%,12.156863%,12.54902%);fill-opacity:1;" d="M 59.789062 69.066406 C 59.582031 70.695312 60.75 72.117188 61.835938 73.371094 C 62.136719 73.683594 63.136719 73.308594 62.816406 74.164062 C 62.070312 74.496094 61.46875 75.183594 60.570312 75.183594 C 60.074219 73.363281 59.375 71.355469 57.566406 70.414062 C 57.867188 69.59375 58.949219 69.28125 59.789062 69.066406 Z M 59.789062 69.066406 "/>
<path style=" stroke:none;fill-rule:evenodd;fill:rgb(13.72549%,12.156863%,12.54902%);fill-opacity:1;" d="M 28.136719 71.863281 C 28.335938 72.316406 27.855469 72.214844 27.664062 72.375 C 26.667969 73.789062 25.175781 75.21875 25.835938 77.085938 C 24.867188 77.332031 24.292969 76.558594 23.546875 76.164062 C 23.414062 75.671875 24.121094 75.796875 24.355469 75.503906 C 25.027344 74.0625 26.84375 72.65625 25.863281 70.949219 C 26.796875 70.800781 27.289062 71.789062 28.136719 71.863281 Z M 28.136719 71.863281 "/>
<path style=" stroke:none;fill-rule:evenodd;fill:rgb(13.72549%,12.156863%,12.54902%);fill-opacity:1;" d="M 55.972656 71.402344 C 55.925781 73.164062 56.792969 75.21875 58.347656 76.183594 C 58.402344 77.132812 57.328125 76.804688 56.925781 77.351562 C 55.585938 77.292969 54.539062 76.539062 53.34375 76.132812 C 52.636719 76.644531 53.371094 77.324219 53.378906 77.917969 C 53.578125 78.132812 53.859375 78.113281 54.039062 78.386719 C 53.371094 78.785156 52.691406 79.1875 51.796875 79.085938 C 51.984375 77.058594 51.109375 74.945312 49.902344 73.476562 C 50.5625 73.195312 51.402344 72.664062 52.296875 72.609375 C 52.390625 73.363281 51.910156 74.503906 53.152344 74.851562 C 53.953125 75.25 54.832031 76.011719 55.746094 75.597656 C 55.433594 74.351562 55.113281 72.96875 53.90625 72.25 C 54.351562 71.734375 55.125 70.867188 55.972656 71.402344 Z M 55.972656 71.402344 "/>
<path style=" stroke:none;fill-rule:evenodd;fill:rgb(13.72549%,12.156863%,12.54902%);fill-opacity:1;" d="M 34.300781 73.996094 C 34.386719 74.558594 34.027344 75.097656 33.519531 75.296875 C 32.652344 74.9375 31.984375 74.070312 30.917969 74.230469 C 30.757812 74.558594 30.410156 75.011719 30.785156 75.363281 C 31.597656 76.371094 33.179688 76.472656 33.414062 77.878906 C 33.453125 78.746094 32.898438 79.234375 32.160156 79.519531 C 30.304688 79.773438 29.25 77.953125 27.449219 78.011719 C 27.375 77.546875 27.902344 77.191406 28.242188 77.03125 C 29.390625 76.839844 30.796875 79.632812 31.3125 77.445312 C 30.53125 76.125 27.703125 75.425781 28.976562 73.46875 C 29.683594 72.421875 31.070312 72.855469 32.019531 73.0625 C 32.851562 73.203125 33.273438 74.382812 34.300781 73.996094 Z M 34.300781 73.996094 "/>
<path style=" stroke:none;fill-rule:evenodd;fill:rgb(13.72549%,12.156863%,12.54902%);fill-opacity:1;" d="M 38.007812 74.53125 C 38.101562 75.117188 37.214844 75.316406 37.554688 75.992188 C 38.214844 76.777344 38.84375 77.859375 39.855469 78.199219 C 40.429688 77.472656 40.03125 76.371094 40.125 75.445312 C 39.855469 75.183594 39.476562 74.957031 39.617188 74.503906 C 40.511719 74.34375 41.238281 74.683594 42.050781 74.769531 C 40.644531 76.023438 41.457031 78.320312 41.523438 79.941406 L 42.011719 80.414062 C 39.617188 81.96875 39.015625 78.625 37.429688 77.925781 C 36.855469 78.386719 36.894531 79.28125 37.15625 79.875 L 37.316406 80.035156 C 36.515625 80.367188 35.582031 80.027344 34.746094 79.933594 C 34.734375 79.574219 35.433594 79.226562 35.527344 78.773438 C 35.546875 77.21875 36.046875 75.652344 35.582031 74.109375 C 36.480469 74.003906 37.289062 74.144531 38.007812 74.53125 Z M 38.007812 74.53125 "/>
<path style=" stroke:none;fill-rule:evenodd;fill:rgb(13.72549%,12.156863%,12.54902%);fill-opacity:1;" d="M 48.460938 73.996094 C 48.109375 75.992188 48.46875 78.066406 49.5625 79.621094 L 49.089844 79.953125 L 44.105469 80.546875 C 43.5 80.328125 43.867188 79.699219 43.746094 79.273438 C 44.152344 79.105469 44.792969 79.394531 45.207031 79.714844 C 45.972656 79.359375 47.082031 79.773438 47.609375 78.859375 C 47.628906 78.273438 47.601562 77.558594 46.933594 77.425781 C 46.386719 77.8125 46.375 78.414062 45.660156 78.414062 C 45.253906 77.765625 45.207031 76.746094 45.453125 76.011719 L 45.933594 75.992188 C 45.933594 76.277344 46.261719 76.417969 46.433594 76.632812 C 46.726562 76.726562 46.886719 76.472656 47.066406 76.292969 C 47.09375 75.765625 47.046875 75.285156 46.554688 75.003906 C 45.652344 75.398438 44.179688 74.84375 43.839844 76.199219 L 43.519531 76.210938 L 43.484375 74.589844 C 45.199219 74.511719 46.621094 73.769531 48.460938 73.996094 Z M 48.460938 73.996094 "/>
<path style=" stroke:none;fill-rule:evenodd;fill:rgb(13.72549%,12.156863%,12.54902%);fill-opacity:1;" d="M 40.589844 73.53125 C 40.578125 73.53125 40.570312 73.53125 40.570312 73.53125 C 40.457031 73.523438 40.34375 73.523438 40.230469 73.523438 C 39.871094 73.503906 39.589844 73.203125 39.597656 72.835938 C 39.617188 72.476562 39.917969 72.195312 40.289062 72.214844 C 40.390625 72.214844 40.496094 72.214844 40.609375 72.222656 C 40.964844 72.230469 41.25 72.535156 41.238281 72.890625 C 41.230469 73.25 40.9375 73.53125 40.589844 73.53125 Z M 42.550781 73.523438 C 42.199219 73.523438 41.910156 73.25 41.898438 72.890625 C 41.878906 72.535156 42.164062 72.230469 42.53125 72.214844 C 42.632812 72.214844 42.746094 72.214844 42.851562 72.203125 C 43.210938 72.183594 43.519531 72.46875 43.53125 72.835938 C 43.546875 73.195312 43.265625 73.496094 42.90625 73.515625 C 42.792969 73.523438 42.679688 73.523438 42.566406 73.523438 C 42.566406 73.523438 42.558594 73.523438 42.550781 73.523438 Z M 38.296875 73.382812 C 38.28125 73.382812 38.25 73.382812 38.230469 73.382812 C 38.121094 73.363281 38.007812 73.355469 37.902344 73.34375 C 37.523438 73.308594 37.269531 72.976562 37.308594 72.617188 C 37.355469 72.261719 37.6875 71.996094 38.042969 72.042969 C 38.148438 72.054688 38.261719 72.0625 38.363281 72.070312 C 38.722656 72.109375 38.988281 72.429688 38.949219 72.796875 C 38.910156 73.128906 38.628906 73.382812 38.296875 73.382812 Z M 44.839844 73.363281 C 44.511719 73.363281 44.21875 73.117188 44.191406 72.777344 C 44.152344 72.421875 44.40625 72.101562 44.765625 72.0625 C 44.878906 72.054688 44.980469 72.035156 45.085938 72.023438 C 45.441406 71.976562 45.773438 72.242188 45.8125 72.601562 C 45.859375 72.957031 45.601562 73.289062 45.246094 73.324219 C 45.132812 73.335938 45.019531 73.355469 44.90625 73.363281 C 44.886719 73.363281 44.859375 73.363281 44.839844 73.363281 Z M 36.015625 73.0625 C 35.980469 73.0625 35.941406 73.0625 35.902344 73.050781 C 35.789062 73.035156 35.6875 73.015625 35.574219 72.996094 C 35.214844 72.929688 34.980469 72.582031 35.054688 72.230469 C 35.121094 71.875 35.460938 71.636719 35.820312 71.703125 C 35.921875 71.722656 36.027344 71.742188 36.128906 71.761719 C 36.488281 71.828125 36.722656 72.167969 36.667969 72.523438 C 36.609375 72.84375 36.328125 73.0625 36.015625 73.0625 Z M 47.101562 73.042969 C 46.800781 73.042969 46.519531 72.816406 46.460938 72.503906 C 46.394531 72.148438 46.632812 71.808594 46.988281 71.742188 C 47.09375 71.722656 47.195312 71.703125 47.308594 71.675781 C 47.660156 71.609375 48.007812 71.847656 48.074219 72.203125 C 48.140625 72.550781 47.914062 72.902344 47.554688 72.96875 C 47.441406 72.988281 47.339844 73.003906 47.226562 73.035156 C 47.1875 73.035156 47.148438 73.042969 47.101562 73.042969 Z M 33.773438 72.582031 C 33.726562 72.582031 33.671875 72.570312 33.613281 72.5625 C 33.511719 72.535156 33.398438 72.503906 33.292969 72.476562 C 32.945312 72.382812 32.738281 72.023438 32.832031 71.675781 C 32.914062 71.316406 33.285156 71.109375 33.632812 71.203125 C 33.734375 71.234375 33.839844 71.261719 33.945312 71.289062 C 34.292969 71.375 34.5 71.734375 34.414062 72.089844 C 34.339844 72.382812 34.066406 72.582031 33.773438 72.582031 Z M 49.34375 72.542969 C 49.054688 72.542969 48.789062 72.34375 48.714844 72.054688 C 48.621094 71.703125 48.828125 71.347656 49.183594 71.25 C 49.289062 71.222656 49.394531 71.203125 49.496094 71.175781 C 49.84375 71.074219 50.203125 71.28125 50.296875 71.628906 C 50.390625 71.988281 50.183594 72.34375 49.835938 72.441406 C 49.730469 72.46875 49.617188 72.496094 49.515625 72.523438 C 49.457031 72.535156 49.402344 72.542969 49.34375 72.542969 Z M 31.578125 71.929688 C 31.511719 71.929688 31.4375 71.921875 31.371094 71.894531 C 31.265625 71.855469 31.152344 71.828125 31.050781 71.789062 C 30.710938 71.667969 30.53125 71.289062 30.644531 70.949219 C 30.765625 70.609375 31.144531 70.433594 31.484375 70.546875 C 31.585938 70.582031 31.679688 70.621094 31.785156 70.648438 C 32.132812 70.769531 32.3125 71.140625 32.199219 71.488281 C 32.105469 71.761719 31.851562 71.929688 31.578125 71.929688 Z M 51.542969 71.882812 C 51.269531 71.882812 51.015625 71.714844 50.917969 71.441406 C 50.808594 71.101562 50.984375 70.722656 51.335938 70.609375 C 51.429688 70.574219 51.53125 70.535156 51.636719 70.507812 C 51.976562 70.382812 52.351562 70.5625 52.476562 70.902344 C 52.589844 71.242188 52.410156 71.621094 52.070312 71.742188 C 51.964844 71.78125 51.863281 71.816406 51.757812 71.847656 C 51.683594 71.875 51.617188 71.882812 51.542969 71.882812 Z M 29.4375 71.121094 C 29.351562 71.121094 29.269531 71.101562 29.183594 71.0625 C 29.078125 71.027344 28.976562 70.980469 28.871094 70.941406 C 28.542969 70.789062 28.390625 70.402344 28.53125 70.074219 C 28.675781 69.742188 29.0625 69.59375 29.398438 69.734375 C 29.496094 69.773438 29.589844 69.820312 29.691406 69.855469 C 30.023438 70 30.183594 70.382812 30.039062 70.714844 C 29.9375 70.96875 29.691406 71.121094 29.4375 71.121094 Z M 53.691406 71.0625 C 53.4375 71.0625 53.191406 70.914062 53.085938 70.667969 C 52.945312 70.328125 53.097656 69.941406 53.425781 69.800781 C 53.53125 69.761719 53.625 69.714844 53.730469 69.679688 C 54.058594 69.527344 54.445312 69.679688 54.585938 70.007812 C 54.738281 70.347656 54.585938 70.734375 54.257812 70.875 C 54.152344 70.921875 54.050781 70.96875 53.945312 71.007812 C 53.859375 71.042969 53.777344 71.0625 53.691406 71.0625 Z M 27.363281 70.148438 C 27.261719 70.148438 27.15625 70.128906 27.0625 70.082031 C 26.957031 70.027344 26.863281 69.980469 26.769531 69.921875 C 26.449219 69.761719 26.328125 69.355469 26.488281 69.035156 C 26.65625 68.714844 27.054688 68.59375 27.375 68.761719 C 27.46875 68.820312 27.5625 68.867188 27.65625 68.914062 C 27.984375 69.074219 28.109375 69.46875 27.949219 69.789062 C 27.824219 70.027344 27.601562 70.148438 27.363281 70.148438 Z M 55.765625 70.082031 C 55.527344 70.082031 55.304688 69.949219 55.179688 69.726562 C 55.019531 69.40625 55.144531 69.007812 55.464844 68.847656 C 55.558594 68.792969 55.652344 68.746094 55.746094 68.699219 C 56.066406 68.527344 56.460938 68.648438 56.632812 68.972656 C 56.800781 69.28125 56.679688 69.6875 56.359375 69.855469 C 56.265625 69.902344 56.171875 69.960938 56.066406 70.007812 C 55.972656 70.054688 55.867188 70.082031 55.765625 70.082031 Z M 25.367188 69.035156 C 25.242188 69.035156 25.128906 69 25.015625 68.941406 C 24.921875 68.875 24.828125 68.820312 24.734375 68.761719 C 24.433594 68.574219 24.339844 68.167969 24.527344 67.859375 C 24.714844 67.558594 25.121094 67.460938 25.429688 67.652344 C 25.515625 67.707031 25.609375 67.765625 25.703125 67.820312 C 26.015625 68.007812 26.109375 68.414062 25.921875 68.714844 C 25.800781 68.921875 25.582031 69.035156 25.367188 69.035156 Z M 57.761719 68.953125 C 57.546875 68.953125 57.328125 68.839844 57.207031 68.640625 C 57.019531 68.328125 57.113281 67.925781 57.414062 67.734375 C 57.507812 67.679688 57.601562 67.621094 57.6875 67.566406 C 58 67.378906 58.402344 67.460938 58.59375 67.773438 C 58.789062 68.074219 58.695312 68.480469 58.394531 68.679688 C 58.300781 68.734375 58.207031 68.792969 58.101562 68.859375 C 58 68.921875 57.875 68.953125 57.761719 68.953125 Z M 23.453125 67.773438 C 23.320312 67.773438 23.1875 67.734375 23.066406 67.652344 C 22.980469 67.585938 22.886719 67.519531 22.800781 67.453125 C 22.507812 67.238281 22.445312 66.832031 22.660156 66.53125 C 22.867188 66.238281 23.28125 66.171875 23.574219 66.386719 C 23.660156 66.445312 23.746094 66.511719 23.828125 66.578125 C 24.128906 66.792969 24.195312 67.199219 23.980469 67.5 C 23.859375 67.679688 23.648438 67.773438 23.453125 67.773438 Z M 59.667969 67.679688 C 59.46875 67.679688 59.269531 67.585938 59.140625 67.40625 C 58.933594 67.113281 58.996094 66.699219 59.289062 66.480469 C 59.375 66.417969 59.460938 66.351562 59.542969 66.292969 C 59.835938 66.078125 60.25 66.132812 60.460938 66.425781 C 60.675781 66.726562 60.621094 67.140625 60.328125 67.347656 C 60.234375 67.425781 60.148438 67.492188 60.054688 67.546875 C 59.941406 67.632812 59.808594 67.679688 59.667969 67.679688 Z M 21.632812 66.359375 C 21.492188 66.359375 21.339844 66.3125 21.21875 66.207031 C 21.132812 66.132812 21.046875 66.066406 20.964844 65.992188 C 20.679688 65.757812 20.652344 65.339844 20.886719 65.070312 C 21.125 64.796875 21.539062 64.757812 21.8125 64.992188 C 21.886719 65.070312 21.972656 65.132812 22.058594 65.199219 C 22.332031 65.4375 22.367188 65.851562 22.140625 66.125 C 22.011719 66.285156 21.820312 66.359375 21.632812 66.359375 Z M 61.476562 66.257812 C 61.296875 66.257812 61.109375 66.171875 60.976562 66.019531 C 60.742188 65.746094 60.78125 65.332031 61.0625 65.097656 C 61.136719 65.03125 61.222656 64.957031 61.296875 64.890625 C 61.582031 64.652344 61.996094 64.683594 62.230469 64.964844 C 62.46875 65.238281 62.429688 65.652344 62.15625 65.886719 C 62.070312 65.953125 61.984375 66.03125 61.902344 66.105469 C 61.777344 66.207031 61.628906 66.257812 61.476562 66.257812 Z M 19.925781 64.832031 C 19.765625 64.832031 19.597656 64.765625 19.472656 64.644531 C 19.390625 64.570312 19.3125 64.492188 19.238281 64.417969 C 18.976562 64.164062 18.976562 63.75 19.230469 63.484375 C 19.484375 63.230469 19.898438 63.230469 20.152344 63.476562 C 20.226562 63.550781 20.304688 63.625 20.378906 63.703125 C 20.644531 63.957031 20.652344 64.371094 20.398438 64.636719 C 20.277344 64.765625 20.097656 64.832031 19.925781 64.832031 Z M 63.183594 64.71875 C 63.011719 64.71875 62.835938 64.652344 62.710938 64.523438 C 62.457031 64.257812 62.46875 63.84375 62.722656 63.589844 C 62.796875 63.511719 62.871094 63.4375 62.949219 63.363281 C 63.210938 63.109375 63.625 63.109375 63.878906 63.363281 C 64.136719 63.625 64.136719 64.039062 63.871094 64.296875 C 63.796875 64.371094 63.71875 64.457031 63.636719 64.53125 C 63.511719 64.652344 63.34375 64.71875 63.183594 64.71875 Z M 18.332031 63.183594 C 18.15625 63.183594 17.976562 63.109375 17.851562 62.957031 C 17.777344 62.882812 17.703125 62.796875 17.625 62.710938 C 17.390625 62.4375 17.417969 62.023438 17.691406 61.789062 C 17.957031 61.542969 18.371094 61.570312 18.617188 61.84375 C 18.683594 61.929688 18.757812 62.003906 18.824219 62.089844 C 19.070312 62.355469 19.039062 62.769531 18.777344 63.011719 C 18.652344 63.125 18.492188 63.183594 18.332031 63.183594 Z M 64.757812 63.050781 C 64.605469 63.050781 64.457031 63.003906 64.324219 62.890625 C 64.058594 62.644531 64.03125 62.242188 64.265625 61.96875 C 64.34375 61.882812 64.410156 61.808594 64.484375 61.722656 C 64.71875 61.449219 65.132812 61.421875 65.40625 61.65625 C 65.679688 61.890625 65.710938 62.304688 65.472656 62.578125 C 65.398438 62.664062 65.324219 62.75 65.257812 62.835938 C 65.125 62.976562 64.945312 63.050781 64.757812 63.050781 Z M 16.871094 61.410156 C 16.675781 61.410156 16.484375 61.328125 16.355469 61.15625 C 16.289062 61.070312 16.214844 60.976562 16.148438 60.894531 C 15.929688 60.601562 15.988281 60.195312 16.277344 59.976562 C 16.570312 59.753906 16.976562 59.816406 17.191406 60.101562 C 17.257812 60.1875 17.324219 60.269531 17.390625 60.355469 C 17.609375 60.648438 17.5625 61.054688 17.269531 61.277344 C 17.15625 61.375 17.015625 61.410156 16.871094 61.410156 Z M 66.21875 61.289062 C 66.078125 61.289062 65.9375 61.242188 65.824219 61.148438 C 65.53125 60.929688 65.472656 60.515625 65.699219 60.234375 C 65.757812 60.148438 65.824219 60.0625 65.886719 59.976562 C 66.105469 59.6875 66.519531 59.628906 66.804688 59.835938 C 67.09375 60.054688 67.152344 60.46875 66.945312 60.761719 C 66.867188 60.84375 66.804688 60.941406 66.738281 61.023438 C 66.605469 61.195312 66.417969 61.289062 66.21875 61.289062 Z M 15.542969 59.542969 C 15.328125 59.542969 15.121094 59.441406 14.996094 59.253906 C 14.929688 59.160156 14.875 59.0625 14.808594 58.96875 C 14.609375 58.667969 14.703125 58.261719 15.007812 58.066406 C 15.308594 57.867188 15.714844 57.953125 15.910156 58.261719 C 15.96875 58.347656 16.023438 58.441406 16.089844 58.527344 C 16.289062 58.828125 16.203125 59.242188 15.902344 59.441406 C 15.789062 59.507812 15.667969 59.542969 15.542969 59.542969 Z M 67.539062 59.414062 C 67.414062 59.414062 67.292969 59.375 67.179688 59.308594 C 66.878906 59.109375 66.792969 58.695312 66.992188 58.394531 C 67.046875 58.308594 67.105469 58.214844 67.160156 58.128906 C 67.359375 57.820312 67.765625 57.734375 68.066406 57.921875 C 68.378906 58.121094 68.460938 58.527344 68.265625 58.828125 C 68.207031 58.921875 68.152344 59.015625 68.085938 59.109375 C 67.960938 59.308594 67.753906 59.414062 67.539062 59.414062 Z M 14.347656 57.585938 C 14.121094 57.585938 13.894531 57.460938 13.773438 57.246094 C 13.722656 57.152344 13.667969 57.054688 13.609375 56.953125 C 13.441406 56.632812 13.554688 56.234375 13.875 56.066406 C 14.195312 55.898438 14.589844 56.011719 14.761719 56.332031 C 14.816406 56.425781 14.863281 56.519531 14.921875 56.613281 C 15.101562 56.925781 14.988281 57.320312 14.667969 57.5 C 14.5625 57.554688 14.460938 57.585938 14.347656 57.585938 Z M 68.714844 57.441406 C 68.613281 57.441406 68.5 57.425781 68.40625 57.367188 C 68.085938 57.1875 67.972656 56.792969 68.140625 56.472656 C 68.199219 56.378906 68.246094 56.292969 68.292969 56.199219 C 68.472656 55.878906 68.867188 55.753906 69.1875 55.925781 C 69.5 56.09375 69.621094 56.5 69.453125 56.8125 C 69.394531 56.914062 69.347656 57.007812 69.292969 57.101562 C 69.167969 57.320312 68.953125 57.441406 68.714844 57.441406 Z M 13.308594 55.539062 C 13.054688 55.539062 12.820312 55.398438 12.707031 55.160156 C 12.660156 55.058594 12.621094 54.953125 12.574219 54.851562 C 12.421875 54.519531 12.566406 54.132812 12.894531 53.984375 C 13.226562 53.84375 13.621094 53.984375 13.761719 54.3125 C 13.808594 54.417969 13.855469 54.511719 13.902344 54.605469 C 14.054688 54.933594 13.914062 55.320312 13.582031 55.480469 C 13.488281 55.519531 13.394531 55.539062 13.308594 55.539062 Z M 69.742188 55.40625 C 69.660156 55.40625 69.566406 55.378906 69.46875 55.339844 C 69.140625 55.191406 69 54.804688 69.148438 54.472656 C 69.195312 54.378906 69.246094 54.277344 69.28125 54.179688 C 69.433594 53.851562 69.820312 53.699219 70.148438 53.851562 C 70.480469 54.003906 70.628906 54.386719 70.480469 54.71875 C 70.433594 54.8125 70.394531 54.917969 70.347656 55.019531 C 70.234375 55.253906 70 55.40625 69.742188 55.40625 Z M 12.414062 53.417969 C 12.148438 53.417969 11.90625 53.257812 11.800781 52.992188 C 11.765625 52.890625 11.726562 52.785156 11.6875 52.683594 C 11.566406 52.34375 11.734375 51.964844 12.074219 51.84375 C 12.414062 51.722656 12.792969 51.890625 12.914062 52.230469 C 12.953125 52.332031 12.988281 52.4375 13.027344 52.53125 C 13.160156 52.871094 12.988281 53.25 12.648438 53.378906 C 12.574219 53.410156 12.488281 53.417969 12.414062 53.417969 Z M 70.621094 53.285156 C 70.546875 53.285156 70.46875 53.277344 70.394531 53.25 C 70.054688 53.117188 69.886719 52.738281 70.007812 52.398438 C 70.046875 52.304688 70.082031 52.203125 70.121094 52.097656 C 70.242188 51.757812 70.621094 51.589844 70.960938 51.710938 C 71.300781 51.824219 71.476562 52.203125 71.355469 52.542969 C 71.316406 52.652344 71.28125 52.757812 71.234375 52.863281 C 71.140625 53.125 70.894531 53.285156 70.621094 53.285156 Z M 11.6875 51.25 C 11.40625 51.25 11.140625 51.0625 11.058594 50.777344 C 11.027344 50.664062 11 50.5625 10.960938 50.449219 C 10.867188 50.101562 11.074219 49.742188 11.425781 49.648438 C 11.765625 49.542969 12.132812 49.75 12.226562 50.101562 C 12.253906 50.203125 12.292969 50.296875 12.320312 50.402344 C 12.421875 50.75 12.214844 51.117188 11.875 51.222656 C 11.8125 51.242188 11.746094 51.25 11.6875 51.25 Z M 71.335938 51.109375 C 71.28125 51.109375 71.222656 51.097656 71.15625 51.078125 C 70.808594 50.984375 70.609375 50.617188 70.714844 50.269531 C 70.742188 50.164062 70.769531 50.0625 70.800781 49.96875 C 70.894531 49.617188 71.25 49.410156 71.601562 49.507812 C 71.949219 49.601562 72.15625 49.96875 72.0625 50.316406 C 72.035156 50.421875 71.996094 50.523438 71.96875 50.636719 C 71.882812 50.917969 71.628906 51.109375 71.335938 51.109375 Z M 11.121094 49.023438 C 10.820312 49.023438 10.546875 48.808594 10.480469 48.507812 C 10.464844 48.394531 10.433594 48.289062 10.414062 48.175781 C 10.339844 47.820312 10.574219 47.480469 10.925781 47.402344 C 11.28125 47.328125 11.632812 47.5625 11.699219 47.914062 C 11.714844 48.015625 11.746094 48.121094 11.765625 48.234375 C 11.839844 48.582031 11.613281 48.929688 11.265625 49.007812 C 11.21875 49.015625 11.171875 49.023438 11.121094 49.023438 Z M 71.894531 48.882812 C 71.847656 48.882812 71.808594 48.882812 71.761719 48.875 C 71.402344 48.800781 71.175781 48.449219 71.25 48.09375 C 71.269531 47.988281 71.300781 47.882812 71.316406 47.78125 C 71.382812 47.421875 71.734375 47.195312 72.089844 47.261719 C 72.441406 47.339844 72.675781 47.675781 72.601562 48.035156 C 72.582031 48.148438 72.5625 48.253906 72.535156 48.367188 C 72.46875 48.675781 72.195312 48.882812 71.894531 48.882812 Z M 10.726562 46.761719 C 10.40625 46.761719 10.125 46.527344 10.078125 46.199219 C 10.066406 46.085938 10.046875 45.980469 10.03125 45.867188 C 9.992188 45.507812 10.246094 45.179688 10.605469 45.132812 C 10.960938 45.085938 11.292969 45.339844 11.332031 45.699219 C 11.347656 45.8125 11.359375 45.914062 11.378906 46.019531 C 11.425781 46.375 11.179688 46.707031 10.820312 46.753906 C 10.785156 46.761719 10.753906 46.761719 10.726562 46.761719 Z M 72.28125 46.621094 C 72.25 46.621094 72.222656 46.621094 72.195312 46.621094 C 71.835938 46.574219 71.582031 46.246094 71.628906 45.886719 C 71.648438 45.773438 71.65625 45.667969 71.675781 45.566406 C 71.714844 45.207031 72.042969 44.953125 72.402344 44.992188 C 72.761719 45.039062 73.015625 45.367188 72.976562 45.726562 C 72.957031 45.828125 72.949219 45.941406 72.929688 46.054688 C 72.882812 46.386719 72.609375 46.621094 72.28125 46.621094 Z M 10.5 44.480469 C 10.152344 44.480469 9.867188 44.21875 9.839844 43.867188 C 9.839844 43.757812 9.832031 43.644531 9.820312 43.539062 C 9.804688 43.171875 10.085938 42.859375 10.445312 42.839844 C 10.800781 42.824219 11.113281 43.105469 11.132812 43.464844 C 11.140625 43.566406 11.140625 43.679688 11.152344 43.785156 C 11.179688 44.140625 10.898438 44.453125 10.539062 44.480469 C 10.527344 44.480469 10.511719 44.480469 10.5 44.480469 Z M 72.503906 44.339844 C 72.488281 44.339844 72.476562 44.339844 72.457031 44.339844 C 72.101562 44.320312 71.828125 44.011719 71.847656 43.644531 C 71.855469 43.539062 71.855469 43.433594 71.863281 43.324219 C 71.882812 42.964844 72.183594 42.691406 72.550781 42.699219 C 72.910156 42.71875 73.195312 43.03125 73.175781 43.386719 C 73.164062 43.5 73.164062 43.613281 73.15625 43.726562 C 73.136719 44.078125 72.84375 44.339844 72.503906 44.339844 Z M 10.433594 42.191406 L 10.425781 42.191406 C 10.066406 42.191406 9.773438 41.890625 9.785156 41.53125 C 9.785156 41.417969 9.785156 41.304688 9.785156 41.191406 C 9.792969 40.832031 10.09375 40.542969 10.453125 40.550781 C 10.8125 40.558594 11.105469 40.863281 11.09375 41.21875 C 11.09375 41.324219 11.09375 41.4375 11.09375 41.539062 C 11.085938 41.898438 10.792969 42.191406 10.433594 42.191406 Z M 72.550781 42.050781 C 72.195312 42.050781 71.902344 41.757812 71.894531 41.398438 C 71.894531 41.296875 71.894531 41.191406 71.894531 41.078125 C 71.882812 40.722656 72.167969 40.417969 72.535156 40.410156 L 72.542969 40.410156 C 72.902344 40.410156 73.195312 40.691406 73.203125 41.050781 C 73.203125 41.164062 73.203125 41.277344 73.210938 41.378906 C 73.210938 41.75 72.921875 42.039062 72.5625 42.050781 Z M 10.539062 39.902344 C 10.519531 39.902344 10.5 39.902344 10.480469 39.902344 C 10.125 39.871094 9.859375 39.550781 9.886719 39.195312 C 9.898438 39.082031 9.90625 38.96875 9.917969 38.855469 C 9.945312 38.496094 10.265625 38.230469 10.632812 38.261719 C 10.992188 38.296875 11.253906 38.617188 11.21875 38.976562 C 11.207031 39.082031 11.199219 39.195312 11.1875 39.296875 C 11.160156 39.636719 10.878906 39.902344 10.539062 39.902344 Z M 72.441406 39.757812 C 72.101562 39.757812 71.816406 39.503906 71.789062 39.15625 C 71.78125 39.050781 71.769531 38.949219 71.75 38.84375 C 71.722656 38.476562 71.988281 38.15625 72.34375 38.128906 C 72.703125 38.089844 73.023438 38.355469 73.0625 38.714844 C 73.070312 38.824219 73.082031 38.9375 73.089844 39.042969 C 73.117188 39.410156 72.855469 39.722656 72.496094 39.757812 C 72.476562 39.757812 72.457031 39.757812 72.441406 39.757812 Z M 10.8125 37.621094 C 10.773438 37.621094 10.746094 37.621094 10.707031 37.621094 C 10.351562 37.5625 10.105469 37.222656 10.160156 36.867188 C 10.179688 36.753906 10.199219 36.648438 10.21875 36.535156 C 10.273438 36.175781 10.613281 35.941406 10.972656 36 C 11.332031 36.054688 11.566406 36.394531 11.507812 36.753906 C 11.492188 36.855469 11.472656 36.960938 11.460938 37.074219 C 11.40625 37.394531 11.132812 37.621094 10.8125 37.621094 Z M 72.15625 37.488281 C 71.835938 37.488281 71.5625 37.253906 71.507812 36.929688 C 71.488281 36.828125 71.476562 36.722656 71.460938 36.621094 C 71.394531 36.261719 71.628906 35.921875 71.988281 35.855469 C 72.34375 35.800781 72.683594 36.035156 72.75 36.394531 C 72.769531 36.507812 72.789062 36.609375 72.808594 36.722656 C 72.863281 37.082031 72.617188 37.414062 72.261719 37.476562 C 72.222656 37.476562 72.183594 37.488281 72.15625 37.488281 Z M 11.253906 35.375 C 11.199219 35.375 11.152344 35.367188 11.105469 35.355469 C 10.746094 35.273438 10.527344 34.921875 10.613281 34.566406 C 10.640625 34.460938 10.660156 34.347656 10.6875 34.246094 C 10.773438 33.886719 11.132812 33.679688 11.480469 33.765625 C 11.839844 33.847656 12.046875 34.207031 11.960938 34.554688 C 11.941406 34.660156 11.914062 34.761719 11.886719 34.867188 C 11.820312 35.167969 11.546875 35.375 11.253906 35.375 Z M 71.703125 35.234375 C 71.414062 35.234375 71.140625 35.035156 71.074219 34.734375 C 71.042969 34.632812 71.015625 34.527344 70.988281 34.425781 C 70.902344 34.066406 71.121094 33.71875 71.46875 33.621094 C 71.816406 33.539062 72.175781 33.753906 72.261719 34.105469 C 72.289062 34.207031 72.316406 34.320312 72.34375 34.425781 C 72.429688 34.78125 72.214844 35.132812 71.855469 35.214844 C 71.808594 35.226562 71.75 35.234375 71.703125 35.234375 Z M 11.859375 33.160156 C 11.792969 33.160156 11.726562 33.152344 11.660156 33.132812 C 11.3125 33.019531 11.121094 32.652344 11.234375 32.3125 C 11.265625 32.199219 11.300781 32.097656 11.332031 31.992188 C 11.441406 31.644531 11.8125 31.453125 12.160156 31.566406 C 12.507812 31.679688 12.6875 32.046875 12.582031 32.398438 C 12.546875 32.5 12.519531 32.59375 12.480469 32.699219 C 12.394531 32.980469 12.132812 33.160156 11.859375 33.160156 Z M 71.089844 33.027344 C 70.808594 33.027344 70.554688 32.851562 70.46875 32.566406 C 70.433594 32.464844 70.402344 32.371094 70.367188 32.265625 C 70.253906 31.917969 70.441406 31.550781 70.78125 31.4375 C 71.128906 31.324219 71.496094 31.511719 71.609375 31.851562 C 71.648438 31.953125 71.675781 32.066406 71.714844 32.171875 C 71.828125 32.519531 71.636719 32.886719 71.289062 32.992188 C 71.222656 33.019531 71.15625 33.027344 71.089844 33.027344 Z M 12.621094 31.003906 C 12.546875 31.003906 12.460938 30.984375 12.386719 30.957031 C 12.046875 30.824219 11.886719 30.4375 12.019531 30.105469 C 12.054688 30.003906 12.101562 29.898438 12.140625 29.796875 C 12.28125 29.457031 12.660156 29.296875 13 29.4375 C 13.328125 29.570312 13.488281 29.957031 13.355469 30.285156 C 13.308594 30.390625 13.273438 30.484375 13.234375 30.585938 C 13.128906 30.84375 12.886719 31.003906 12.621094 31.003906 Z M 70.308594 30.859375 C 70.054688 30.859375 69.808594 30.710938 69.707031 30.457031 C 69.660156 30.351562 69.621094 30.257812 69.582031 30.152344 C 69.441406 29.824219 69.601562 29.4375 69.933594 29.296875 C 70.273438 29.164062 70.648438 29.316406 70.789062 29.65625 C 70.835938 29.757812 70.875 29.863281 70.921875 29.964844 C 71.054688 30.296875 70.894531 30.683594 70.554688 30.8125 C 70.480469 30.851562 70.394531 30.859375 70.308594 30.859375 Z M 13.546875 28.910156 C 13.449219 28.910156 13.355469 28.882812 13.261719 28.835938 C 12.941406 28.683594 12.800781 28.289062 12.960938 27.96875 C 13.007812 27.863281 13.054688 27.761719 13.113281 27.664062 C 13.273438 27.335938 13.667969 27.203125 13.988281 27.375 C 14.308594 27.535156 14.441406 27.929688 14.28125 28.25 C 14.234375 28.34375 14.1875 28.4375 14.140625 28.53125 C 14.027344 28.769531 13.789062 28.910156 13.546875 28.910156 Z M 69.375 28.769531 C 69.132812 28.769531 68.894531 28.636719 68.78125 28.402344 C 68.734375 28.304688 68.6875 28.210938 68.640625 28.117188 C 68.480469 27.789062 68.601562 27.390625 68.933594 27.230469 C 69.253906 27.070312 69.648438 27.203125 69.808594 27.523438 C 69.855469 27.617188 69.914062 27.722656 69.960938 27.824219 C 70.121094 28.144531 69.988281 28.542969 69.660156 28.703125 C 69.566406 28.75 69.46875 28.769531 69.375 28.769531 Z M 14.628906 26.882812 C 14.515625 26.882812 14.402344 26.855469 14.300781 26.796875 C 13.988281 26.609375 13.875 26.214844 14.0625 25.902344 C 14.121094 25.800781 14.175781 25.703125 14.234375 25.609375 C 14.414062 25.300781 14.816406 25.195312 15.128906 25.382812 C 15.441406 25.574219 15.542969 25.96875 15.355469 26.28125 C 15.296875 26.375 15.25 26.46875 15.195312 26.5625 C 15.074219 26.769531 14.855469 26.882812 14.628906 26.882812 Z M 68.28125 26.75 C 68.054688 26.75 67.839844 26.628906 67.71875 26.421875 C 67.660156 26.335938 67.605469 26.242188 67.546875 26.148438 C 67.367188 25.835938 67.460938 25.429688 67.773438 25.253906 C 68.085938 25.0625 68.488281 25.160156 68.679688 25.46875 C 68.734375 25.5625 68.792969 25.667969 68.847656 25.761719 C 69.027344 26.074219 68.921875 26.46875 68.613281 26.65625 C 68.507812 26.714844 68.394531 26.75 68.28125 26.75 Z M 15.855469 24.949219 C 15.722656 24.949219 15.589844 24.914062 15.476562 24.835938 C 15.183594 24.628906 15.109375 24.226562 15.308594 23.921875 C 15.375 23.828125 15.441406 23.734375 15.507812 23.648438 C 15.714844 23.347656 16.117188 23.28125 16.410156 23.488281 C 16.710938 23.695312 16.777344 24.101562 16.570312 24.402344 C 16.515625 24.488281 16.457031 24.574219 16.390625 24.660156 C 16.269531 24.847656 16.0625 24.949219 15.855469 24.949219 Z M 67.046875 24.808594 C 66.839844 24.808594 66.632812 24.714844 66.5 24.535156 C 66.445312 24.441406 66.386719 24.355469 66.320312 24.273438 C 66.113281 23.96875 66.179688 23.566406 66.472656 23.359375 C 66.773438 23.140625 67.179688 23.214844 67.386719 23.507812 C 67.453125 23.601562 67.519531 23.695312 67.585938 23.78125 C 67.792969 24.082031 67.71875 24.488281 67.414062 24.695312 C 67.300781 24.773438 67.171875 24.808594 67.046875 24.808594 Z M 17.210938 23.101562 C 17.070312 23.101562 16.929688 23.054688 16.808594 22.960938 C 16.523438 22.734375 16.476562 22.320312 16.703125 22.039062 C 16.777344 21.953125 16.84375 21.867188 16.910156 21.785156 C 17.144531 21.5 17.5625 21.464844 17.835938 21.691406 C 18.117188 21.914062 18.15625 22.332031 17.929688 22.613281 C 17.863281 22.699219 17.796875 22.773438 17.730469 22.859375 C 17.597656 23.019531 17.410156 23.101562 17.210938 23.101562 Z M 65.671875 22.980469 C 65.484375 22.980469 65.285156 22.894531 65.164062 22.734375 C 65.097656 22.652344 65.019531 22.566406 64.957031 22.480469 C 64.730469 22.207031 64.765625 21.792969 65.039062 21.558594 C 65.324219 21.332031 65.738281 21.367188 65.964844 21.652344 C 66.039062 21.738281 66.105469 21.820312 66.179688 21.90625 C 66.40625 22.1875 66.359375 22.605469 66.078125 22.828125 C 65.964844 22.933594 65.8125 22.980469 65.671875 22.980469 Z M 18.710938 21.367188 C 18.550781 21.367188 18.390625 21.3125 18.269531 21.191406 C 18.003906 20.945312 17.984375 20.53125 18.230469 20.265625 C 18.304688 20.191406 18.382812 20.105469 18.457031 20.019531 C 18.710938 19.757812 19.125 19.746094 19.390625 20.003906 C 19.652344 20.246094 19.664062 20.660156 19.410156 20.925781 C 19.34375 21 19.265625 21.078125 19.191406 21.160156 C 19.058594 21.304688 18.890625 21.367188 18.710938 21.367188 Z M 64.164062 21.246094 C 63.984375 21.246094 63.816406 21.179688 63.683594 21.039062 C 63.605469 20.964844 63.542969 20.886719 63.464844 20.804688 C 63.210938 20.550781 63.222656 20.132812 63.484375 19.878906 C 63.75 19.625 64.164062 19.632812 64.410156 19.898438 C 64.484375 19.984375 64.570312 20.058594 64.644531 20.144531 C 64.890625 20.40625 64.878906 20.824219 64.617188 21.066406 C 64.484375 21.191406 64.324219 21.246094 64.164062 21.246094 Z M 20.332031 19.746094 C 20.152344 19.746094 19.984375 19.671875 19.851562 19.539062 C 19.605469 19.277344 19.625 18.863281 19.890625 18.605469 C 19.964844 18.53125 20.050781 18.457031 20.132812 18.382812 C 20.398438 18.136719 20.8125 18.15625 21.058594 18.429688 C 21.304688 18.691406 21.285156 19.105469 21.011719 19.351562 C 20.933594 19.425781 20.859375 19.492188 20.773438 19.570312 C 20.652344 19.691406 20.492188 19.746094 20.332031 19.746094 Z M 62.53125 19.632812 C 62.371094 19.632812 62.210938 19.578125 62.089844 19.457031 C 62.015625 19.390625 61.929688 19.3125 61.855469 19.238281 C 61.582031 19.003906 61.5625 18.589844 61.808594 18.316406 C 62.050781 18.050781 62.46875 18.023438 62.730469 18.269531 C 62.816406 18.34375 62.902344 18.417969 62.976562 18.492188 C 63.25 18.738281 63.257812 19.152344 63.011719 19.417969 C 62.890625 19.558594 62.710938 19.632812 62.53125 19.632812 Z M 22.066406 18.25 C 21.878906 18.25 21.691406 18.164062 21.558594 18.003906 C 21.332031 17.722656 21.378906 17.304688 21.660156 17.082031 C 21.746094 17.003906 21.832031 16.9375 21.914062 16.871094 C 22.207031 16.648438 22.613281 16.695312 22.839844 16.976562 C 23.066406 17.269531 23.007812 17.675781 22.726562 17.898438 C 22.640625 17.964844 22.558594 18.03125 22.480469 18.097656 C 22.359375 18.203125 22.207031 18.25 22.066406 18.25 Z M 60.789062 18.144531 C 60.648438 18.144531 60.507812 18.097656 60.382812 18.003906 C 60.296875 17.9375 60.214844 17.871094 60.128906 17.804688 C 59.847656 17.578125 59.800781 17.164062 60.015625 16.882812 C 60.242188 16.597656 60.648438 16.542969 60.941406 16.769531 C 61.023438 16.835938 61.109375 16.902344 61.203125 16.976562 C 61.488281 17.203125 61.535156 17.609375 61.308594 17.890625 C 61.175781 18.058594 60.988281 18.144531 60.789062 18.144531 Z M 23.90625 16.871094 C 23.695312 16.871094 23.5 16.777344 23.367188 16.589844 C 23.160156 16.296875 23.234375 15.882812 23.535156 15.683594 C 23.632812 15.617188 23.726562 15.554688 23.808594 15.496094 C 24.113281 15.289062 24.515625 15.375 24.726562 15.667969 C 24.921875 15.96875 24.847656 16.382812 24.546875 16.582031 C 24.460938 16.636719 24.367188 16.703125 24.28125 16.757812 C 24.167969 16.835938 24.035156 16.871094 23.90625 16.871094 Z M 58.941406 16.789062 C 58.820312 16.789062 58.6875 16.75 58.574219 16.675781 C 58.488281 16.609375 58.402344 16.550781 58.308594 16.496094 C 58.007812 16.289062 57.933594 15.882812 58.128906 15.582031 C 58.328125 15.28125 58.734375 15.203125 59.035156 15.402344 C 59.128906 15.457031 59.222656 15.523438 59.320312 15.589844 C 59.609375 15.789062 59.695312 16.195312 59.488281 16.496094 C 59.367188 16.683594 59.160156 16.789062 58.941406 16.789062 Z M 25.847656 15.648438 C 25.621094 15.648438 25.402344 15.535156 25.28125 15.316406 C 25.101562 15.007812 25.207031 14.609375 25.515625 14.421875 C 25.609375 14.367188 25.703125 14.308594 25.808594 14.253906 C 26.121094 14.074219 26.523438 14.1875 26.703125 14.496094 C 26.882812 14.816406 26.769531 15.214844 26.460938 15.394531 C 26.363281 15.449219 26.269531 15.507812 26.175781 15.554688 C 26.074219 15.617188 25.960938 15.648438 25.847656 15.648438 Z M 57.007812 15.5625 C 56.894531 15.5625 56.78125 15.535156 56.679688 15.476562 C 56.585938 15.421875 56.492188 15.375 56.394531 15.316406 C 56.085938 15.136719 55.972656 14.742188 56.152344 14.429688 C 56.332031 14.109375 56.726562 13.996094 57.046875 14.175781 C 57.140625 14.234375 57.234375 14.289062 57.328125 14.347656 C 57.648438 14.527344 57.753906 14.921875 57.574219 15.242188 C 57.453125 15.449219 57.234375 15.5625 57.007812 15.5625 Z M 27.871094 14.5625 C 27.628906 14.5625 27.390625 14.429688 27.277344 14.195312 C 27.117188 13.867188 27.261719 13.480469 27.582031 13.320312 C 27.683594 13.273438 27.777344 13.214844 27.882812 13.167969 C 28.210938 13.015625 28.597656 13.160156 28.757812 13.480469 C 28.910156 13.808594 28.777344 14.195312 28.449219 14.355469 C 28.355469 14.402344 28.25 14.449219 28.15625 14.496094 C 28.0625 14.542969 27.96875 14.5625 27.871094 14.5625 Z M 54.984375 14.496094 C 54.886719 14.496094 54.785156 14.476562 54.699219 14.429688 C 54.597656 14.382812 54.5 14.335938 54.40625 14.289062 C 54.078125 14.140625 53.9375 13.753906 54.097656 13.421875 C 54.246094 13.09375 54.632812 12.953125 54.964844 13.101562 C 55.066406 13.148438 55.171875 13.195312 55.265625 13.253906 C 55.59375 13.402344 55.726562 13.800781 55.578125 14.121094 C 55.464844 14.355469 55.226562 14.496094 54.984375 14.496094 Z M 29.964844 13.628906 C 29.710938 13.628906 29.464844 13.480469 29.363281 13.214844 C 29.230469 12.886719 29.390625 12.5 29.730469 12.367188 C 29.832031 12.328125 29.9375 12.28125 30.039062 12.246094 C 30.378906 12.113281 30.757812 12.28125 30.890625 12.621094 C 31.019531 12.953125 30.851562 13.339844 30.511719 13.46875 C 30.410156 13.507812 30.3125 13.546875 30.210938 13.582031 C 30.136719 13.609375 30.050781 13.628906 29.964844 13.628906 Z M 52.878906 13.574219 C 52.804688 13.574219 52.71875 13.5625 52.644531 13.535156 C 52.542969 13.488281 52.445312 13.449219 52.34375 13.414062 C 52.003906 13.28125 51.835938 12.90625 51.964844 12.566406 C 52.097656 12.234375 52.476562 12.066406 52.816406 12.1875 C 52.917969 12.226562 53.023438 12.273438 53.125 12.308594 C 53.464844 12.441406 53.625 12.828125 53.492188 13.160156 C 53.390625 13.421875 53.144531 13.574219 52.878906 13.574219 Z M 32.132812 12.855469 C 31.851562 12.855469 31.597656 12.679688 31.511719 12.394531 C 31.398438 12.054688 31.585938 11.6875 31.9375 11.574219 C 32.039062 11.546875 32.152344 11.507812 32.257812 11.480469 C 32.605469 11.367188 32.972656 11.566406 33.078125 11.914062 C 33.179688 12.261719 32.980469 12.632812 32.644531 12.734375 C 32.539062 12.761719 32.433594 12.792969 32.332031 12.828125 C 32.265625 12.847656 32.199219 12.855469 32.132812 12.855469 Z M 50.722656 12.820312 C 50.65625 12.820312 50.589844 12.808594 50.523438 12.78125 C 50.421875 12.753906 50.324219 12.726562 50.222656 12.695312 C 49.875 12.59375 49.675781 12.226562 49.777344 11.875 C 49.882812 11.527344 50.25 11.332031 50.597656 11.433594 C 50.703125 11.472656 50.808594 11.5 50.917969 11.539062 C 51.257812 11.640625 51.457031 12.007812 51.34375 12.359375 C 51.257812 12.632812 51.003906 12.820312 50.722656 12.820312 Z M 34.347656 12.253906 C 34.046875 12.253906 33.78125 12.046875 33.707031 11.746094 C 33.621094 11.394531 33.839844 11.039062 34.199219 10.953125 C 34.300781 10.933594 34.414062 10.90625 34.519531 10.878906 C 34.875 10.800781 35.226562 11.019531 35.300781 11.378906 C 35.386719 11.726562 35.160156 12.085938 34.8125 12.160156 C 34.707031 12.1875 34.601562 12.207031 34.5 12.234375 C 34.441406 12.246094 34.394531 12.253906 34.347656 12.253906 Z M 48.507812 12.214844 C 48.460938 12.214844 48.414062 12.214844 48.355469 12.199219 C 48.253906 12.179688 48.148438 12.148438 48.042969 12.132812 C 47.695312 12.054688 47.46875 11.707031 47.546875 11.347656 C 47.621094 11 47.980469 10.773438 48.328125 10.847656 C 48.441406 10.878906 48.542969 10.898438 48.65625 10.925781 C 49.007812 11 49.222656 11.359375 49.148438 11.707031 C 49.074219 12.007812 48.808594 12.214844 48.507812 12.214844 Z M 36.59375 11.8125 C 36.28125 11.8125 36 11.574219 35.949219 11.253906 C 35.894531 10.898438 36.140625 10.558594 36.488281 10.5 C 36.601562 10.492188 36.714844 10.472656 36.828125 10.453125 C 37.1875 10.398438 37.515625 10.652344 37.574219 11.007812 C 37.621094 11.367188 37.375 11.699219 37.015625 11.753906 C 36.914062 11.765625 36.800781 11.78125 36.695312 11.800781 C 36.667969 11.800781 36.628906 11.8125 36.59375 11.8125 Z M 46.253906 11.78125 C 46.226562 11.78125 46.1875 11.78125 46.160156 11.773438 C 46.046875 11.765625 45.941406 11.746094 45.839844 11.734375 C 45.480469 11.679688 45.234375 11.347656 45.28125 10.992188 C 45.332031 10.632812 45.667969 10.378906 46.027344 10.433594 C 46.132812 10.445312 46.246094 10.464844 46.359375 10.480469 C 46.714844 10.539062 46.960938 10.867188 46.90625 11.226562 C 46.855469 11.554688 46.574219 11.78125 46.253906 11.78125 Z M 38.882812 11.527344 C 38.542969 11.527344 38.261719 11.273438 38.230469 10.933594 C 38.195312 10.566406 38.46875 10.253906 38.824219 10.226562 C 38.9375 10.21875 39.050781 10.207031 39.15625 10.199219 C 39.523438 10.171875 39.835938 10.445312 39.863281 10.800781 C 39.890625 11.160156 39.617188 11.480469 39.257812 11.507812 C 39.148438 11.507812 39.042969 11.519531 38.9375 11.527344 C 38.921875 11.527344 38.902344 11.527344 38.882812 11.527344 Z M 43.980469 11.519531 C 43.964844 11.519531 43.945312 11.519531 43.925781 11.519531 C 43.820312 11.507812 43.707031 11.5 43.605469 11.5 C 43.246094 11.472656 42.972656 11.160156 43 10.792969 C 43.019531 10.433594 43.332031 10.160156 43.699219 10.191406 C 43.804688 10.199219 43.917969 10.199219 44.03125 10.207031 C 44.386719 10.238281 44.660156 10.558594 44.632812 10.914062 C 44.605469 11.265625 44.320312 11.519531 43.980469 11.519531 Z M 41.171875 11.425781 C 40.816406 11.425781 40.523438 11.132812 40.511719 10.773438 C 40.511719 10.414062 40.804688 10.113281 41.164062 10.113281 C 41.277344 10.113281 41.390625 10.113281 41.503906 10.113281 C 41.570312 10.113281 41.625 10.113281 41.691406 10.113281 C 42.050781 10.113281 42.34375 10.40625 42.34375 10.773438 C 42.34375 11.132812 42.050781 11.425781 41.683594 11.425781 C 41.625 11.425781 41.558594 11.425781 41.503906 11.425781 C 41.390625 11.425781 41.285156 11.425781 41.183594 11.425781 C 41.171875 11.425781 41.171875 11.425781 41.171875 11.425781 Z M 41.171875 11.425781 "/>
<path style=" stroke:none;fill-rule:evenodd;fill:rgb(13.72549%,12.156863%,12.54902%);fill-opacity:1;" d="M 41.503906 83.007812 C 35.894531 83.007812 30.464844 81.902344 25.347656 79.746094 C 22.886719 78.699219 20.511719 77.417969 18.296875 75.917969 C 16.101562 74.429688 14.035156 72.730469 12.160156 70.847656 C 10.273438 68.972656 8.578125 66.90625 7.089844 64.710938 C 5.589844 62.484375 4.296875 60.121094 3.261719 57.660156 C 1.101562 52.542969 0 47.113281 0 41.503906 C 0 35.902344 1.101562 30.464844 3.261719 25.347656 C 4.296875 22.886719 5.589844 20.511719 7.089844 18.296875 C 8.578125 16.101562 10.273438 14.035156 12.160156 12.160156 C 14.035156 10.273438 16.101562 8.566406 18.296875 7.089844 C 20.511719 5.589844 22.886719 4.296875 25.347656 3.261719 C 30.464844 1.09375 35.894531 0 41.503906 0 C 47.101562 0 52.53125 1.09375 57.648438 3.261719 C 60.109375 4.296875 62.484375 5.589844 64.699219 7.089844 C 66.898438 8.566406 68.972656 10.273438 70.847656 12.160156 C 72.730469 14.035156 74.429688 16.101562 75.917969 18.296875 C 77.417969 20.511719 78.707031 22.886719 79.746094 25.347656 C 81.902344 30.464844 83.007812 35.902344 83.007812 41.503906 C 83.007812 47.113281 81.902344 52.542969 79.746094 57.660156 C 78.707031 60.121094 77.417969 62.484375 75.917969 64.710938 C 74.429688 66.90625 72.730469 68.972656 70.847656 70.847656 C 68.972656 72.730469 66.898438 74.429688 64.699219 75.917969 C 62.484375 77.417969 60.109375 78.699219 57.648438 79.746094 C 52.53125 81.902344 47.101562 83.007812 41.503906 83.007812 Z M 41.503906 0.980469 C 19.164062 0.980469 0.980469 19.152344 0.980469 41.503906 C 0.980469 63.84375 19.164062 82.015625 41.503906 82.015625 C 63.832031 82.015625 82.027344 63.84375 82.027344 41.503906 C 82.027344 19.152344 63.832031 0.980469 41.503906 0.980469 Z M 41.503906 0.980469 "/>
</g>
</svg>
